<svg xmlns="http://www.w3.org/2000/svg" xmlns:xlink="http://www.w3.org/1999/xlink" width="500" zoomAndPan="magnify" viewBox="0 0 375 374.999991" height="500" preserveAspectRatio="xMidYMid meet" version="1.2"><defs><clipPath id="6f4cfedf15"><path d="M 151 212 L 170 212 L 170 233 L 151 233 Z M 151 212 "/></clipPath><clipPath id="cab3bf8a0c"><path d="M 151.886719 220.394531 C 149.851562 225.65625 151.886719 231.011719 156.421875 232.304688 C 160.957031 233.597656 166.402344 230.253906 168.351562 224.871094 C 170.300781 219.488281 168.109375 214.355469 163.585938 213.171875 C 159.066406 211.988281 153.894531 215.179688 151.886719 220.394531 Z M 151.886719 220.394531 "/></clipPath><linearGradient x1="110.196862" gradientTransform="matrix(0.636851,0,0,0.636851,83.681666,13.9336)" y1="347.978533" x2="129.661072" gradientUnits="userSpaceOnUse" y2="307.906155" id="36b16bb010"><stop style="stop-color:#ffde59;stop-opacity:1;" offset="0"/><stop style="stop-color:#ffde59;stop-opacity:1;" offset="0.25"/><stop style="stop-color:#ffde59;stop-opacity:1;" offset="0.28125"/><stop style="stop-color:#ffde59;stop-opacity:1;" offset="0.296875"/><stop style="stop-color:#fedd59;stop-opacity:1;" offset="0.3125"/><stop style="stop-color:#fddd59;stop-opacity:1;" offset="0.314915"/><stop style="stop-color:#fddc59;stop-opacity:1;" offset="0.328125"/><stop style="stop-color:#fcdc59;stop-opacity:1;" offset="0.34375"/><stop style="stop-color:#fcdb59;stop-opacity:1;" offset="0.359375"/><stop style="stop-color:#fbdb59;stop-opacity:1;" offset="0.375"/><stop style="stop-color:#fada59;stop-opacity:1;" offset="0.390625"/><stop style="stop-color:#f9da59;stop-opacity:1;" offset="0.40625"/><stop style="stop-color:#f9d959;stop-opacity:1;" offset="0.421875"/><stop style="stop-color:#f8d959;stop-opacity:1;" offset="0.4375"/><stop style="stop-color:#f7d859;stop-opacity:1;" offset="0.453125"/><stop style="stop-color:#f6d759;stop-opacity:1;" offset="0.46875"/><stop style="stop-color:#f6d759;stop-opacity:1;" offset="0.484375"/><stop style="stop-color:#f5d659;stop-opacity:1;" offset="0.5"/><stop style="stop-color:#f4d659;stop-opacity:1;" offset="0.515625"/><stop style="stop-color:#f3d559;stop-opacity:1;" offset="0.53125"/><stop style="stop-color:#f3d459;stop-opacity:1;" offset="0.546875"/><stop style="stop-color:#f2d459;stop-opacity:1;" offset="0.5625"/><stop style="stop-color:#f1d359;stop-opacity:1;" offset="0.578125"/><stop style="stop-color:#f0d359;stop-opacity:1;" offset="0.59375"/><stop style="stop-color:#f0d259;stop-opacity:1;" offset="0.609375"/><stop style="stop-color:#efd159;stop-opacity:1;" offset="0.625"/><stop style="stop-color:#eed159;stop-opacity:1;" offset="0.640625"/><stop style="stop-color:#edd059;stop-opacity:1;" offset="0.65625"/><stop style="stop-color:#edd059;stop-opacity:1;" offset="0.671875"/><stop style="stop-color:#eccf5a;stop-opacity:1;" offset="0.685085"/><stop style="stop-color:#ebcf5a;stop-opacity:1;" offset="0.6875"/><stop style="stop-color:#ebce5a;stop-opacity:1;" offset="0.703125"/><stop style="stop-color:#eace5a;stop-opacity:1;" offset="0.71875"/><stop style="stop-color:#eacd5a;stop-opacity:1;" offset="0.734375"/><stop style="stop-color:#e9cd5a;stop-opacity:1;" offset="0.75"/><stop style="stop-color:#e8cc5a;stop-opacity:1;" offset="0.765625"/><stop style="stop-color:#e7cc5a;stop-opacity:1;" offset="0.78125"/><stop style="stop-color:#e7cb5a;stop-opacity:1;" offset="0.796875"/><stop style="stop-color:#e6ca5a;stop-opacity:1;" offset="0.8125"/><stop style="stop-color:#e5ca5a;stop-opacity:1;" offset="0.828125"/><stop style="stop-color:#e4c95a;stop-opacity:1;" offset="0.84375"/><stop style="stop-color:#e4c95a;stop-opacity:1;" offset="0.859375"/><stop style="stop-color:#e3c85a;stop-opacity:1;" offset="0.875"/><stop style="stop-color:#e2c75a;stop-opacity:1;" offset="0.890625"/><stop style="stop-color:#e1c75a;stop-opacity:1;" offset="0.90625"/><stop style="stop-color:#e1c65a;stop-opacity:1;" offset="0.921875"/><stop style="stop-color:#e0c65a;stop-opacity:1;" offset="0.9375"/><stop style="stop-color:#dfc55a;stop-opacity:1;" offset="0.953125"/><stop style="stop-color:#dec45a;stop-opacity:1;" offset="0.96875"/><stop style="stop-color:#dec45a;stop-opacity:1;" offset="0.984375"/><stop style="stop-color:#ddc35a;stop-opacity:1;" offset="1"/></linearGradient><clipPath id="98c0c26f7d"><path d="M 123 79 L 252 79 L 252 219 L 123 219 Z M 123 79 "/></clipPath><clipPath id="57b8795ab3"><path d="M 251.6875 92.839844 L 244.984375 114.914062 L 214.804688 214.191406 C 213.878906 217.230469 210.859375 219.140625 208.085938 218.425781 L 176.363281 210.300781 C 175.425781 208.511719 174.167969 206.988281 172.589844 205.730469 C 171.007812 204.472656 169.242188 203.589844 167.289062 203.078125 C 163.1875 202.003906 158.792969 202.714844 154.816406 204.765625 L 126.503906 197.523438 C 124.140625 196.917969 123.210938 194.230469 124.402344 191.53125 L 129.300781 180.433594 L 172.605469 82.242188 C 172.839844 81.753906 173.144531 81.316406 173.511719 80.921875 C 173.882812 80.527344 174.304688 80.195312 174.773438 79.929688 C 175.246094 79.664062 175.742188 79.472656 176.273438 79.359375 C 176.800781 79.246094 177.332031 79.214844 177.871094 79.261719 L 248.5625 88.484375 C 250.914062 88.789062 252.332031 90.730469 251.6875 92.839844 Z M 251.6875 92.839844 "/></clipPath><linearGradient x1="107.922707" gradientTransform="matrix(0.636851,0,0,0.636851,83.681666,13.9336)" y1="344.491842" x2="232.975583" gradientUnits="userSpaceOnUse" y2="87.036454" id="7328eff49b"><stop style="stop-color:#ffde59;stop-opacity:1;" offset="0"/><stop style="stop-color:#ffde59;stop-opacity:1;" offset="0.03125"/><stop style="stop-color:#ffde59;stop-opacity:1;" offset="0.0390625"/><stop style="stop-color:#fddc59;stop-opacity:1;" offset="0.0429688"/><stop style="stop-color:#fcdc59;stop-opacity:1;" offset="0.046875"/><stop style="stop-color:#fbdb59;stop-opacity:1;" offset="0.0507812"/><stop style="stop-color:#f9da59;stop-opacity:1;" offset="0.0546875"/><stop style="stop-color:#f8d959;stop-opacity:1;" offset="0.0585937"/><stop style="stop-color:#f7d859;stop-opacity:1;" offset="0.0625"/><stop style="stop-color:#f6d759;stop-opacity:1;" offset="0.0664062"/><stop style="stop-color:#f4d659;stop-opacity:1;" offset="0.0703125"/><stop style="stop-color:#f3d559;stop-opacity:1;" offset="0.0742187"/><stop style="stop-color:#f2d459;stop-opacity:1;" offset="0.078125"/><stop style="stop-color:#f1d359;stop-opacity:1;" offset="0.0820313"/><stop style="stop-color:#f0d259;stop-opacity:1;" offset="0.0859375"/><stop style="stop-color:#eed159;stop-opacity:1;" offset="0.0898438"/><stop style="stop-color:#edd059;stop-opacity:1;" offset="0.09375"/><stop style="stop-color:#eccf5a;stop-opacity:1;" offset="0.0976562"/><stop style="stop-color:#ebce5a;stop-opacity:1;" offset="0.101562"/><stop style="stop-color:#eacd5a;stop-opacity:1;" offset="0.105469"/><stop style="stop-color:#e8cc5a;stop-opacity:1;" offset="0.109375"/><stop style="stop-color:#e7cb5a;stop-opacity:1;" offset="0.113281"/><stop style="stop-color:#e6ca5a;stop-opacity:1;" offset="0.117188"/><stop style="stop-color:#e5ca5a;stop-opacity:1;" offset="0.121094"/><stop style="stop-color:#e4c95a;stop-opacity:1;" offset="0.125"/><stop style="stop-color:#e2c85a;stop-opacity:1;" offset="0.128906"/><stop style="stop-color:#e1c75a;stop-opacity:1;" offset="0.132812"/><stop style="stop-color:#e0c65a;stop-opacity:1;" offset="0.136719"/><stop style="stop-color:#dfc55a;stop-opacity:1;" offset="0.140625"/><stop style="stop-color:#dec45a;stop-opacity:1;" offset="0.144531"/><stop style="stop-color:#dcc35a;stop-opacity:1;" offset="0.148438"/><stop style="stop-color:#dbc25a;stop-opacity:1;" offset="0.152344"/><stop style="stop-color:#dac15a;stop-opacity:1;" offset="0.15625"/><stop style="stop-color:#d9c05a;stop-opacity:1;" offset="0.160156"/><stop style="stop-color:#d8bf5a;stop-opacity:1;" offset="0.164063"/><stop style="stop-color:#d6be5a;stop-opacity:1;" offset="0.167969"/><stop style="stop-color:#d5bd5a;stop-opacity:1;" offset="0.171875"/><stop style="stop-color:#d4bc5a;stop-opacity:1;" offset="0.175781"/><stop style="stop-color:#d3bb5a;stop-opacity:1;" offset="0.179688"/><stop style="stop-color:#d1ba5a;stop-opacity:1;" offset="0.183594"/><stop style="stop-color:#d0b95a;stop-opacity:1;" offset="0.1875"/><stop style="stop-color:#cfb85a;stop-opacity:1;" offset="0.191406"/><stop style="stop-color:#ceb85a;stop-opacity:1;" offset="0.195312"/><stop style="stop-color:#cdb75a;stop-opacity:1;" offset="0.199219"/><stop style="stop-color:#cbb65a;stop-opacity:1;" offset="0.203125"/><stop style="stop-color:#cab55a;stop-opacity:1;" offset="0.207031"/><stop style="stop-color:#c9b45a;stop-opacity:1;" offset="0.210938"/><stop style="stop-color:#c8b35a;stop-opacity:1;" offset="0.214844"/><stop style="stop-color:#c7b25b;stop-opacity:1;" offset="0.21875"/><stop style="stop-color:#c5b15b;stop-opacity:1;" offset="0.222656"/><stop style="stop-color:#c4b05b;stop-opacity:1;" offset="0.226562"/><stop style="stop-color:#c3af5b;stop-opacity:1;" offset="0.230469"/><stop style="stop-color:#c2ae5b;stop-opacity:1;" offset="0.234375"/><stop style="stop-color:#c1ad5b;stop-opacity:1;" offset="0.238281"/><stop style="stop-color:#bfac5b;stop-opacity:1;" offset="0.242188"/><stop style="stop-color:#beab5b;stop-opacity:1;" offset="0.246094"/><stop style="stop-color:#bdaa5b;stop-opacity:1;" offset="0.25"/><stop style="stop-color:#bca95b;stop-opacity:1;" offset="0.253906"/><stop style="stop-color:#bba85b;stop-opacity:1;" offset="0.257812"/><stop style="stop-color:#b9a75b;stop-opacity:1;" offset="0.261719"/><stop style="stop-color:#b8a65b;stop-opacity:1;" offset="0.265625"/><stop style="stop-color:#b7a55b;stop-opacity:1;" offset="0.269531"/><stop style="stop-color:#b6a55b;stop-opacity:1;" offset="0.273438"/><stop style="stop-color:#b4a45b;stop-opacity:1;" offset="0.277344"/><stop style="stop-color:#b3a35b;stop-opacity:1;" offset="0.28125"/><stop style="stop-color:#b2a25b;stop-opacity:1;" offset="0.285156"/><stop style="stop-color:#b1a15b;stop-opacity:1;" offset="0.289062"/><stop style="stop-color:#b0a05b;stop-opacity:1;" offset="0.292969"/><stop style="stop-color:#ae9f5b;stop-opacity:1;" offset="0.296875"/><stop style="stop-color:#ad9e5b;stop-opacity:1;" offset="0.300781"/><stop style="stop-color:#ac9d5b;stop-opacity:1;" offset="0.304688"/><stop style="stop-color:#ab9c5b;stop-opacity:1;" offset="0.308594"/><stop style="stop-color:#aa9b5b;stop-opacity:1;" offset="0.3125"/><stop style="stop-color:#a89a5b;stop-opacity:1;" offset="0.316406"/><stop style="stop-color:#a7995b;stop-opacity:1;" offset="0.320312"/><stop style="stop-color:#a6985b;stop-opacity:1;" offset="0.324219"/><stop style="stop-color:#a5975b;stop-opacity:1;" offset="0.328125"/><stop style="stop-color:#a4965b;stop-opacity:1;" offset="0.332031"/><stop style="stop-color:#a2955b;stop-opacity:1;" offset="0.335938"/><stop style="stop-color:#a1945c;stop-opacity:1;" offset="0.339844"/><stop style="stop-color:#a0935c;stop-opacity:1;" offset="0.34375"/><stop style="stop-color:#9f935c;stop-opacity:1;" offset="0.347656"/><stop style="stop-color:#9e925c;stop-opacity:1;" offset="0.351562"/><stop style="stop-color:#9c915c;stop-opacity:1;" offset="0.355469"/><stop style="stop-color:#9b905c;stop-opacity:1;" offset="0.359375"/><stop style="stop-color:#9a8f5c;stop-opacity:1;" offset="0.363281"/><stop style="stop-color:#998e5c;stop-opacity:1;" offset="0.367188"/><stop style="stop-color:#978d5c;stop-opacity:1;" offset="0.371094"/><stop style="stop-color:#968c5c;stop-opacity:1;" offset="0.375"/><stop style="stop-color:#958b5c;stop-opacity:1;" offset="0.378906"/><stop style="stop-color:#948a5c;stop-opacity:1;" offset="0.382812"/><stop style="stop-color:#93895c;stop-opacity:1;" offset="0.386719"/><stop style="stop-color:#91885c;stop-opacity:1;" offset="0.390625"/><stop style="stop-color:#90875c;stop-opacity:1;" offset="0.394531"/><stop style="stop-color:#8f865c;stop-opacity:1;" offset="0.398438"/><stop style="stop-color:#8e855c;stop-opacity:1;" offset="0.402344"/><stop style="stop-color:#8d845c;stop-opacity:1;" offset="0.40625"/><stop style="stop-color:#8b835c;stop-opacity:1;" offset="0.410156"/><stop style="stop-color:#8a825c;stop-opacity:1;" offset="0.414062"/><stop style="stop-color:#89815c;stop-opacity:1;" offset="0.417969"/><stop style="stop-color:#88815c;stop-opacity:1;" offset="0.421875"/><stop style="stop-color:#87805c;stop-opacity:1;" offset="0.425781"/><stop style="stop-color:#857f5c;stop-opacity:1;" offset="0.429687"/><stop style="stop-color:#847e5c;stop-opacity:1;" offset="0.433594"/><stop style="stop-color:#837d5c;stop-opacity:1;" offset="0.4375"/><stop style="stop-color:#827c5c;stop-opacity:1;" offset="0.441406"/><stop style="stop-color:#817b5c;stop-opacity:1;" offset="0.445312"/><stop style="stop-color:#7f7a5c;stop-opacity:1;" offset="0.449219"/><stop style="stop-color:#7e795c;stop-opacity:1;" offset="0.453125"/><stop style="stop-color:#7d785d;stop-opacity:1;" offset="0.457031"/><stop style="stop-color:#7c775d;stop-opacity:1;" offset="0.460937"/><stop style="stop-color:#7a765d;stop-opacity:1;" offset="0.464844"/><stop style="stop-color:#79755d;stop-opacity:1;" offset="0.46875"/><stop style="stop-color:#78745d;stop-opacity:1;" offset="0.472656"/><stop style="stop-color:#77735d;stop-opacity:1;" offset="0.476562"/><stop style="stop-color:#76725d;stop-opacity:1;" offset="0.480469"/><stop style="stop-color:#74715d;stop-opacity:1;" offset="0.484375"/><stop style="stop-color:#73705d;stop-opacity:1;" offset="0.488281"/><stop style="stop-color:#726f5d;stop-opacity:1;" offset="0.492187"/><stop style="stop-color:#716e5d;stop-opacity:1;" offset="0.496094"/><stop style="stop-color:#706e5d;stop-opacity:1;" offset="0.5"/><stop style="stop-color:#6e6d5d;stop-opacity:1;" offset="0.503906"/><stop style="stop-color:#6d6c5d;stop-opacity:1;" offset="0.507812"/><stop style="stop-color:#6c6b5d;stop-opacity:1;" offset="0.511719"/><stop style="stop-color:#6b6a5d;stop-opacity:1;" offset="0.515625"/><stop style="stop-color:#6a695d;stop-opacity:1;" offset="0.519531"/><stop style="stop-color:#68685d;stop-opacity:1;" offset="0.523438"/><stop style="stop-color:#67675d;stop-opacity:1;" offset="0.527344"/><stop style="stop-color:#66665d;stop-opacity:1;" offset="0.53125"/><stop style="stop-color:#65655d;stop-opacity:1;" offset="0.535156"/><stop style="stop-color:#64645d;stop-opacity:1;" offset="0.539062"/><stop style="stop-color:#62635d;stop-opacity:1;" offset="0.542969"/><stop style="stop-color:#61625d;stop-opacity:1;" offset="0.546875"/><stop style="stop-color:#60615d;stop-opacity:1;" offset="0.550781"/><stop style="stop-color:#5f605d;stop-opacity:1;" offset="0.554687"/><stop style="stop-color:#5d5f5d;stop-opacity:1;" offset="0.558594"/><stop style="stop-color:#5c5e5d;stop-opacity:1;" offset="0.5625"/><stop style="stop-color:#5b5d5d;stop-opacity:1;" offset="0.566406"/><stop style="stop-color:#5a5c5d;stop-opacity:1;" offset="0.570312"/><stop style="stop-color:#595c5d;stop-opacity:1;" offset="0.574219"/><stop style="stop-color:#575b5e;stop-opacity:1;" offset="0.578125"/><stop style="stop-color:#565a5e;stop-opacity:1;" offset="0.582031"/><stop style="stop-color:#55595e;stop-opacity:1;" offset="0.585937"/><stop style="stop-color:#54585e;stop-opacity:1;" offset="0.589844"/><stop style="stop-color:#53575e;stop-opacity:1;" offset="0.59375"/><stop style="stop-color:#51565e;stop-opacity:1;" offset="0.597656"/><stop style="stop-color:#50555e;stop-opacity:1;" offset="0.601562"/><stop style="stop-color:#4f545e;stop-opacity:1;" offset="0.605469"/><stop style="stop-color:#4e535e;stop-opacity:1;" offset="0.609375"/><stop style="stop-color:#4d525e;stop-opacity:1;" offset="0.613281"/><stop style="stop-color:#4b515e;stop-opacity:1;" offset="0.617187"/><stop style="stop-color:#4a505e;stop-opacity:1;" offset="0.621094"/><stop style="stop-color:#494f5e;stop-opacity:1;" offset="0.625"/><stop style="stop-color:#484e5e;stop-opacity:1;" offset="0.628906"/><stop style="stop-color:#474d5e;stop-opacity:1;" offset="0.632812"/><stop style="stop-color:#454c5e;stop-opacity:1;" offset="0.636719"/><stop style="stop-color:#444b5e;stop-opacity:1;" offset="0.640625"/><stop style="stop-color:#434a5e;stop-opacity:1;" offset="0.644531"/><stop style="stop-color:#424a5e;stop-opacity:1;" offset="0.648437"/><stop style="stop-color:#40495e;stop-opacity:1;" offset="0.652344"/><stop style="stop-color:#3f485e;stop-opacity:1;" offset="0.65625"/><stop style="stop-color:#3e475e;stop-opacity:1;" offset="0.660156"/><stop style="stop-color:#3d465e;stop-opacity:1;" offset="0.664062"/><stop style="stop-color:#3c455e;stop-opacity:1;" offset="0.667969"/><stop style="stop-color:#3a445e;stop-opacity:1;" offset="0.671875"/><stop style="stop-color:#39435e;stop-opacity:1;" offset="0.675781"/><stop style="stop-color:#38425e;stop-opacity:1;" offset="0.679687"/><stop style="stop-color:#37415e;stop-opacity:1;" offset="0.683594"/><stop style="stop-color:#36405e;stop-opacity:1;" offset="0.6875"/><stop style="stop-color:#343f5e;stop-opacity:1;" offset="0.691406"/><stop style="stop-color:#333e5e;stop-opacity:1;" offset="0.695312"/><stop style="stop-color:#323d5f;stop-opacity:1;" offset="0.699219"/><stop style="stop-color:#313c5f;stop-opacity:1;" offset="0.703125"/><stop style="stop-color:#303b5f;stop-opacity:1;" offset="0.707031"/><stop style="stop-color:#2e3a5f;stop-opacity:1;" offset="0.710937"/><stop style="stop-color:#2d395f;stop-opacity:1;" offset="0.714844"/><stop style="stop-color:#2c385f;stop-opacity:1;" offset="0.71875"/><stop style="stop-color:#2b375f;stop-opacity:1;" offset="0.722656"/><stop style="stop-color:#2a375f;stop-opacity:1;" offset="0.726562"/><stop style="stop-color:#28365f;stop-opacity:1;" offset="0.730469"/><stop style="stop-color:#27355f;stop-opacity:1;" offset="0.734375"/><stop style="stop-color:#26345f;stop-opacity:1;" offset="0.738281"/><stop style="stop-color:#25335f;stop-opacity:1;" offset="0.742187"/><stop style="stop-color:#24325f;stop-opacity:1;" offset="0.746094"/><stop style="stop-color:#22315f;stop-opacity:1;" offset="0.75"/><stop style="stop-color:#21305f;stop-opacity:1;" offset="0.753906"/><stop style="stop-color:#202f5f;stop-opacity:1;" offset="0.757812"/><stop style="stop-color:#1f2e5f;stop-opacity:1;" offset="0.761719"/><stop style="stop-color:#1d2d5f;stop-opacity:1;" offset="0.765625"/><stop style="stop-color:#1c2c5f;stop-opacity:1;" offset="0.769531"/><stop style="stop-color:#1b2b5f;stop-opacity:1;" offset="0.773437"/><stop style="stop-color:#1a2a5f;stop-opacity:1;" offset="0.777344"/><stop style="stop-color:#19295f;stop-opacity:1;" offset="0.78125"/><stop style="stop-color:#17285f;stop-opacity:1;" offset="0.785156"/><stop style="stop-color:#16275f;stop-opacity:1;" offset="0.789062"/><stop style="stop-color:#15265f;stop-opacity:1;" offset="0.792969"/><stop style="stop-color:#14255f;stop-opacity:1;" offset="0.796875"/><stop style="stop-color:#13255f;stop-opacity:1;" offset="0.800781"/><stop style="stop-color:#11245f;stop-opacity:1;" offset="0.804687"/><stop style="stop-color:#10235f;stop-opacity:1;" offset="0.808594"/><stop style="stop-color:#0f225f;stop-opacity:1;" offset="0.8125"/><stop style="stop-color:#0e2160;stop-opacity:1;" offset="0.816406"/><stop style="stop-color:#0d2060;stop-opacity:1;" offset="0.820312"/><stop style="stop-color:#0b1f60;stop-opacity:1;" offset="0.824219"/><stop style="stop-color:#0a1e60;stop-opacity:1;" offset="0.828125"/><stop style="stop-color:#091d60;stop-opacity:1;" offset="0.832031"/><stop style="stop-color:#081c60;stop-opacity:1;" offset="0.835938"/><stop style="stop-color:#071b60;stop-opacity:1;" offset="0.839844"/><stop style="stop-color:#051a60;stop-opacity:1;" offset="0.84375"/><stop style="stop-color:#041960;stop-opacity:1;" offset="0.847656"/><stop style="stop-color:#031860;stop-opacity:1;" offset="0.851563"/><stop style="stop-color:#021760;stop-opacity:1;" offset="0.855469"/><stop style="stop-color:#001660;stop-opacity:1;" offset="0.859375"/><stop style="stop-color:#001660;stop-opacity:1;" offset="0.875"/><stop style="stop-color:#001660;stop-opacity:1;" offset="1"/></linearGradient><clipPath id="8fde4ecaa5"><path d="M 83.542969 34 L 290 34 L 290 235.933594 L 83.542969 235.933594 Z M 83.542969 34 "/></clipPath><clipPath id="f5e2d92e01"><path d="M 186.703125 35.011719 C 184.308594 35.011719 181.917969 35.097656 179.527344 35.261719 C 177.136719 35.429688 174.757812 35.679688 172.386719 36.011719 C 170.011719 36.34375 167.65625 36.757812 165.3125 37.257812 C 162.96875 37.753906 160.644531 38.332031 158.34375 38.992188 C 156.039062 39.648438 153.761719 40.386719 151.511719 41.207031 C 149.257812 42.023438 147.039062 42.921875 144.851562 43.894531 C 142.660156 44.867188 140.507812 45.914062 138.394531 47.035156 C 136.277344 48.160156 134.203125 49.355469 132.171875 50.625 C 130.136719 51.890625 128.152344 53.226562 126.214844 54.632812 C 124.273438 56.039062 122.386719 57.511719 120.550781 59.050781 C 118.714844 60.589844 116.933594 62.1875 115.207031 63.851562 C 113.484375 65.511719 111.816406 67.234375 110.214844 69.011719 C 108.609375 70.789062 107.066406 72.621094 105.589844 74.507812 C 104.113281 76.394531 102.703125 78.328125 101.363281 80.3125 C 100.019531 82.296875 98.75 84.324219 97.546875 86.398438 C 96.347656 88.46875 95.21875 90.582031 94.167969 92.734375 C 93.113281 94.886719 92.136719 97.070312 91.234375 99.289062 C 90.335938 101.511719 89.511719 103.757812 88.769531 106.035156 C 88.023438 108.3125 87.359375 110.613281 86.777344 112.9375 C 86.195312 115.257812 85.691406 117.601562 85.273438 119.957031 C 84.851562 122.316406 84.515625 124.6875 84.257812 127.066406 C 84.003906 129.449219 83.832031 131.835938 83.746094 134.230469 C 83.65625 136.625 83.652344 139.019531 83.730469 141.414062 C 83.808594 143.808594 83.96875 146.195312 84.214844 148.578125 C 84.460938 150.960938 84.789062 153.332031 85.199219 155.691406 C 85.609375 158.054688 86.101562 160.394531 86.675781 162.722656 C 87.25 165.046875 87.90625 167.347656 88.640625 169.628906 C 89.375 171.910156 90.1875 174.160156 91.082031 176.382812 C 91.972656 178.605469 92.941406 180.796875 93.984375 182.953125 C 95.03125 185.109375 96.148438 187.226562 97.339844 189.300781 C 98.53125 191.378906 99.796875 193.414062 101.128906 195.402344 C 102.464844 197.394531 103.863281 199.332031 105.335938 201.226562 L 104.863281 214.699219 L 123.878906 172.457031 L 166.753906 78.011719 C 167.238281 77.050781 167.851562 76.183594 168.597656 75.402344 C 169.339844 74.625 170.183594 73.972656 171.121094 73.445312 C 172.0625 72.917969 173.058594 72.539062 174.109375 72.3125 C 175.164062 72.082031 176.226562 72.007812 177.296875 72.097656 L 254.824219 81.6875 C 259.617188 82.28125 262.554688 86.144531 261.332031 90.375 L 219.253906 235.804688 C 220.574219 235.367188 221.878906 234.894531 223.171875 234.40625 L 264.566406 91.316406 C 264.945312 90.0625 265.066406 88.78125 264.925781 87.476562 C 264.789062 86.171875 264.402344 84.945312 263.769531 83.796875 C 267.589844 84.960938 269.757812 88.414062 268.675781 92.144531 L 228.105469 232.375 C 230.789062 231.195312 233.414062 229.90625 235.988281 228.503906 C 238.558594 227.101562 241.066406 225.59375 243.511719 223.976562 C 245.957031 222.363281 248.324219 220.644531 250.621094 218.828125 C 252.917969 217.011719 255.136719 215.097656 257.269531 213.089844 C 259.402344 211.085938 261.449219 208.992188 263.402344 206.808594 C 265.359375 204.628906 267.21875 202.367188 268.980469 200.027344 C 270.742188 197.6875 272.402344 195.277344 273.960938 192.796875 C 275.515625 190.316406 276.964844 187.773438 278.304688 185.167969 C 279.644531 182.5625 280.871094 179.90625 281.984375 177.199219 C 283.097656 174.488281 284.09375 171.734375 284.972656 168.941406 C 285.851562 166.148438 286.609375 163.320312 287.25 160.460938 C 287.886719 157.601562 288.402344 154.722656 288.792969 151.820312 C 289.1875 148.914062 289.453125 146 289.597656 143.074219 C 289.738281 140.148438 289.757812 137.222656 289.652344 134.296875 C 289.546875 131.367188 289.316406 128.449219 288.960938 125.542969 C 288.605469 122.636719 288.128906 119.75 287.527344 116.882812 C 286.925781 114.015625 286.203125 111.179688 285.359375 108.371094 C 284.515625 105.566406 283.554688 102.804688 282.476562 100.078125 C 281.398438 97.355469 280.203125 94.683594 278.898438 92.0625 C 277.589844 89.441406 276.175781 86.878906 274.648438 84.378906 C 273.125 81.878906 271.496094 79.445312 269.761719 77.085938 C 268.03125 74.722656 266.199219 72.4375 264.273438 70.234375 C 262.34375 68.027344 260.328125 65.90625 258.21875 63.875 C 256.109375 61.839844 253.917969 59.898438 251.644531 58.054688 C 249.371094 56.207031 247.023438 54.460938 244.601562 52.8125 C 242.179688 51.167969 239.691406 49.625 237.136719 48.191406 C 234.582031 46.757812 231.972656 45.433594 229.304688 44.222656 C 226.636719 43.011719 223.921875 41.914062 221.164062 40.933594 C 218.402344 39.953125 215.605469 39.09375 212.773438 38.351562 C 209.9375 37.609375 207.078125 36.988281 204.191406 36.492188 C 201.304688 35.996094 198.402344 35.621094 195.484375 35.371094 C 192.566406 35.121094 189.640625 34.996094 186.710938 34.996094 Z M 186.703125 35.011719 "/></clipPath><linearGradient x1="70.540934" gradientTransform="matrix(0.636851,0,0,0.636851,83.681666,13.9336)" y1="382.676727" x2="256.242847" gradientUnits="userSpaceOnUse" y2="0.35876" id="b6bc1e61fe"><stop style="stop-color:#ffde59;stop-opacity:1;" offset="0"/><stop style="stop-color:#ffde59;stop-opacity:1;" offset="0.125"/><stop style="stop-color:#ffde59;stop-opacity:1;" offset="0.140625"/><stop style="stop-color:#fedd59;stop-opacity:1;" offset="0.144531"/><stop style="stop-color:#fddc59;stop-opacity:1;" offset="0.148438"/><stop style="stop-color:#fbdb59;stop-opacity:1;" offset="0.152344"/><stop style="stop-color:#f9da59;stop-opacity:1;" offset="0.15625"/><stop style="stop-color:#f7d859;stop-opacity:1;" offset="0.160156"/><stop style="stop-color:#f6d759;stop-opacity:1;" offset="0.164062"/><stop style="stop-color:#f4d559;stop-opacity:1;" offset="0.167969"/><stop style="stop-color:#f2d459;stop-opacity:1;" offset="0.171875"/><stop style="stop-color:#f0d359;stop-opacity:1;" offset="0.175781"/><stop style="stop-color:#eed159;stop-opacity:1;" offset="0.179688"/><stop style="stop-color:#edd059;stop-opacity:1;" offset="0.183594"/><stop style="stop-color:#ebce5a;stop-opacity:1;" offset="0.1875"/><stop style="stop-color:#e9cd5a;stop-opacity:1;" offset="0.191406"/><stop style="stop-color:#e7cc5a;stop-opacity:1;" offset="0.195312"/><stop style="stop-color:#e6ca5a;stop-opacity:1;" offset="0.199219"/><stop style="stop-color:#e4c95a;stop-opacity:1;" offset="0.203125"/><stop style="stop-color:#e2c75a;stop-opacity:1;" offset="0.207031"/><stop style="stop-color:#e0c65a;stop-opacity:1;" offset="0.210938"/><stop style="stop-color:#dec45a;stop-opacity:1;" offset="0.214844"/><stop style="stop-color:#ddc35a;stop-opacity:1;" offset="0.21875"/><stop style="stop-color:#dbc25a;stop-opacity:1;" offset="0.222656"/><stop style="stop-color:#d9c05a;stop-opacity:1;" offset="0.226563"/><stop style="stop-color:#d7bf5a;stop-opacity:1;" offset="0.230469"/><stop style="stop-color:#d5bd5a;stop-opacity:1;" offset="0.234375"/><stop style="stop-color:#d4bc5a;stop-opacity:1;" offset="0.238281"/><stop style="stop-color:#d2bb5a;stop-opacity:1;" offset="0.242188"/><stop style="stop-color:#d0b95a;stop-opacity:1;" offset="0.246094"/><stop style="stop-color:#ceb85a;stop-opacity:1;" offset="0.25"/><stop style="stop-color:#ccb65a;stop-opacity:1;" offset="0.253906"/><stop style="stop-color:#cbb55a;stop-opacity:1;" offset="0.257812"/><stop style="stop-color:#c9b45a;stop-opacity:1;" offset="0.261719"/><stop style="stop-color:#c7b25b;stop-opacity:1;" offset="0.265625"/><stop style="stop-color:#c5b15b;stop-opacity:1;" offset="0.269531"/><stop style="stop-color:#c3af5b;stop-opacity:1;" offset="0.273438"/><stop style="stop-color:#c2ae5b;stop-opacity:1;" offset="0.277344"/><stop style="stop-color:#c0ad5b;stop-opacity:1;" offset="0.28125"/><stop style="stop-color:#beab5b;stop-opacity:1;" offset="0.285156"/><stop style="stop-color:#bcaa5b;stop-opacity:1;" offset="0.289063"/><stop style="stop-color:#baa85b;stop-opacity:1;" offset="0.292969"/><stop style="stop-color:#b9a75b;stop-opacity:1;" offset="0.296875"/><stop style="stop-color:#b7a55b;stop-opacity:1;" offset="0.300781"/><stop style="stop-color:#b5a45b;stop-opacity:1;" offset="0.304688"/><stop style="stop-color:#b3a35b;stop-opacity:1;" offset="0.308594"/><stop style="stop-color:#b1a15b;stop-opacity:1;" offset="0.3125"/><stop style="stop-color:#b0a05b;stop-opacity:1;" offset="0.316406"/><stop style="stop-color:#ae9e5b;stop-opacity:1;" offset="0.320313"/><stop style="stop-color:#ac9d5b;stop-opacity:1;" offset="0.324219"/><stop style="stop-color:#aa9c5b;stop-opacity:1;" offset="0.328125"/><stop style="stop-color:#a99a5b;stop-opacity:1;" offset="0.332031"/><stop style="stop-color:#a7995b;stop-opacity:1;" offset="0.335938"/><stop style="stop-color:#a5975b;stop-opacity:1;" offset="0.339844"/><stop style="stop-color:#a3965b;stop-opacity:1;" offset="0.34375"/><stop style="stop-color:#a1955c;stop-opacity:1;" offset="0.347656"/><stop style="stop-color:#a0935c;stop-opacity:1;" offset="0.351562"/><stop style="stop-color:#9e925c;stop-opacity:1;" offset="0.355469"/><stop style="stop-color:#9c905c;stop-opacity:1;" offset="0.359375"/><stop style="stop-color:#9a8f5c;stop-opacity:1;" offset="0.363281"/><stop style="stop-color:#988e5c;stop-opacity:1;" offset="0.367188"/><stop style="stop-color:#978c5c;stop-opacity:1;" offset="0.371094"/><stop style="stop-color:#958b5c;stop-opacity:1;" offset="0.375"/><stop style="stop-color:#93895c;stop-opacity:1;" offset="0.378906"/><stop style="stop-color:#91885c;stop-opacity:1;" offset="0.382813"/><stop style="stop-color:#8f865c;stop-opacity:1;" offset="0.386719"/><stop style="stop-color:#8e855c;stop-opacity:1;" offset="0.390625"/><stop style="stop-color:#8c845c;stop-opacity:1;" offset="0.394531"/><stop style="stop-color:#8a825c;stop-opacity:1;" offset="0.398438"/><stop style="stop-color:#88815c;stop-opacity:1;" offset="0.402344"/><stop style="stop-color:#867f5c;stop-opacity:1;" offset="0.40625"/><stop style="stop-color:#857e5c;stop-opacity:1;" offset="0.410156"/><stop style="stop-color:#837d5c;stop-opacity:1;" offset="0.414063"/><stop style="stop-color:#817b5c;stop-opacity:1;" offset="0.417969"/><stop style="stop-color:#7f7a5c;stop-opacity:1;" offset="0.421875"/><stop style="stop-color:#7d785c;stop-opacity:1;" offset="0.425781"/><stop style="stop-color:#7c775d;stop-opacity:1;" offset="0.429688"/><stop style="stop-color:#7a765d;stop-opacity:1;" offset="0.433594"/><stop style="stop-color:#78745d;stop-opacity:1;" offset="0.4375"/><stop style="stop-color:#76735d;stop-opacity:1;" offset="0.441406"/><stop style="stop-color:#74715d;stop-opacity:1;" offset="0.445312"/><stop style="stop-color:#73705d;stop-opacity:1;" offset="0.449219"/><stop style="stop-color:#716f5d;stop-opacity:1;" offset="0.453125"/><stop style="stop-color:#6f6d5d;stop-opacity:1;" offset="0.457031"/><stop style="stop-color:#6d6c5d;stop-opacity:1;" offset="0.460938"/><stop style="stop-color:#6c6a5d;stop-opacity:1;" offset="0.464844"/><stop style="stop-color:#6a695d;stop-opacity:1;" offset="0.46875"/><stop style="stop-color:#68685d;stop-opacity:1;" offset="0.472656"/><stop style="stop-color:#66665d;stop-opacity:1;" offset="0.476563"/><stop style="stop-color:#64655d;stop-opacity:1;" offset="0.480469"/><stop style="stop-color:#63635d;stop-opacity:1;" offset="0.484375"/><stop style="stop-color:#61625d;stop-opacity:1;" offset="0.488281"/><stop style="stop-color:#5f605d;stop-opacity:1;" offset="0.492188"/><stop style="stop-color:#5d5f5d;stop-opacity:1;" offset="0.496094"/><stop style="stop-color:#5b5e5d;stop-opacity:1;" offset="0.5"/><stop style="stop-color:#5a5c5d;stop-opacity:1;" offset="0.503906"/><stop style="stop-color:#585b5e;stop-opacity:1;" offset="0.507812"/><stop style="stop-color:#56595e;stop-opacity:1;" offset="0.511719"/><stop style="stop-color:#54585e;stop-opacity:1;" offset="0.515625"/><stop style="stop-color:#52575e;stop-opacity:1;" offset="0.519531"/><stop style="stop-color:#51555e;stop-opacity:1;" offset="0.523438"/><stop style="stop-color:#4f545e;stop-opacity:1;" offset="0.527344"/><stop style="stop-color:#4d525e;stop-opacity:1;" offset="0.53125"/><stop style="stop-color:#4b515e;stop-opacity:1;" offset="0.535156"/><stop style="stop-color:#49505e;stop-opacity:1;" offset="0.539062"/><stop style="stop-color:#484e5e;stop-opacity:1;" offset="0.542969"/><stop style="stop-color:#464d5e;stop-opacity:1;" offset="0.546875"/><stop style="stop-color:#444b5e;stop-opacity:1;" offset="0.550781"/><stop style="stop-color:#424a5e;stop-opacity:1;" offset="0.554688"/><stop style="stop-color:#40495e;stop-opacity:1;" offset="0.558594"/><stop style="stop-color:#3f475e;stop-opacity:1;" offset="0.5625"/><stop style="stop-color:#3d465e;stop-opacity:1;" offset="0.566406"/><stop style="stop-color:#3b445e;stop-opacity:1;" offset="0.570312"/><stop style="stop-color:#39435e;stop-opacity:1;" offset="0.574219"/><stop style="stop-color:#37415e;stop-opacity:1;" offset="0.578125"/><stop style="stop-color:#36405e;stop-opacity:1;" offset="0.582031"/><stop style="stop-color:#343f5e;stop-opacity:1;" offset="0.585938"/><stop style="stop-color:#323d5f;stop-opacity:1;" offset="0.589844"/><stop style="stop-color:#303c5f;stop-opacity:1;" offset="0.59375"/><stop style="stop-color:#2f3a5f;stop-opacity:1;" offset="0.597656"/><stop style="stop-color:#2d395f;stop-opacity:1;" offset="0.601563"/><stop style="stop-color:#2b385f;stop-opacity:1;" offset="0.605469"/><stop style="stop-color:#29365f;stop-opacity:1;" offset="0.609375"/><stop style="stop-color:#27355f;stop-opacity:1;" offset="0.613281"/><stop style="stop-color:#26335f;stop-opacity:1;" offset="0.617188"/><stop style="stop-color:#24325f;stop-opacity:1;" offset="0.621094"/><stop style="stop-color:#22315f;stop-opacity:1;" offset="0.625"/><stop style="stop-color:#202f5f;stop-opacity:1;" offset="0.628906"/><stop style="stop-color:#1e2e5f;stop-opacity:1;" offset="0.632812"/><stop style="stop-color:#1d2c5f;stop-opacity:1;" offset="0.636719"/><stop style="stop-color:#1b2b5f;stop-opacity:1;" offset="0.640625"/><stop style="stop-color:#192a5f;stop-opacity:1;" offset="0.644531"/><stop style="stop-color:#17285f;stop-opacity:1;" offset="0.648438"/><stop style="stop-color:#15275f;stop-opacity:1;" offset="0.652344"/><stop style="stop-color:#14255f;stop-opacity:1;" offset="0.65625"/><stop style="stop-color:#12245f;stop-opacity:1;" offset="0.660156"/><stop style="stop-color:#10235f;stop-opacity:1;" offset="0.664062"/><stop style="stop-color:#0e215f;stop-opacity:1;" offset="0.667969"/><stop style="stop-color:#0c2060;stop-opacity:1;" offset="0.671875"/><stop style="stop-color:#0b1e60;stop-opacity:1;" offset="0.675781"/><stop style="stop-color:#091d60;stop-opacity:1;" offset="0.679688"/><stop style="stop-color:#071b60;stop-opacity:1;" offset="0.683594"/><stop style="stop-color:#051a60;stop-opacity:1;" offset="0.6875"/><stop style="stop-color:#031960;stop-opacity:1;" offset="0.691406"/><stop style="stop-color:#021760;stop-opacity:1;" offset="0.695312"/><stop style="stop-color:#011760;stop-opacity:1;" offset="0.699219"/><stop style="stop-color:#001660;stop-opacity:1;" offset="0.703125"/><stop style="stop-color:#001660;stop-opacity:1;" offset="0.71875"/><stop style="stop-color:#001660;stop-opacity:1;" offset="0.75"/><stop style="stop-color:#001660;stop-opacity:1;" offset="1"/></linearGradient><clipPath id="9703828179"><path d="M 128 13.933594 L 142 13.933594 L 142 27 L 128 27 Z M 128 13.933594 "/></clipPath><clipPath id="017cf7afae"><path d="M 141.699219 20.390625 C 141.699219 20.816406 141.65625 21.234375 141.574219 21.652344 C 141.492188 22.066406 141.371094 22.472656 141.207031 22.863281 C 141.046875 23.253906 140.847656 23.625 140.609375 23.980469 C 140.375 24.332031 140.105469 24.65625 139.808594 24.957031 C 139.507812 25.257812 139.179688 25.523438 138.828125 25.761719 C 138.476562 25.996094 138.105469 26.195312 137.710938 26.355469 C 137.320312 26.519531 136.917969 26.640625 136.5 26.726562 C 136.085938 26.808594 135.664062 26.847656 135.242188 26.847656 C 134.816406 26.847656 134.398438 26.808594 133.980469 26.726562 C 133.566406 26.640625 133.160156 26.519531 132.769531 26.355469 C 132.378906 26.195312 132.007812 25.996094 131.652344 25.761719 C 131.300781 25.523438 130.976562 25.257812 130.675781 24.957031 C 130.375 24.65625 130.105469 24.332031 129.871094 23.980469 C 129.636719 23.625 129.4375 23.253906 129.273438 22.863281 C 129.113281 22.472656 128.988281 22.066406 128.90625 21.652344 C 128.824219 21.234375 128.785156 20.816406 128.785156 20.390625 C 128.785156 19.96875 128.824219 19.546875 128.90625 19.132812 C 128.988281 18.714844 129.113281 18.3125 129.273438 17.921875 C 129.4375 17.527344 129.636719 17.15625 129.871094 16.804688 C 130.105469 16.449219 130.375 16.125 130.675781 15.824219 C 130.976562 15.523438 131.300781 15.257812 131.652344 15.023438 C 132.007812 14.785156 132.378906 14.585938 132.769531 14.425781 C 133.160156 14.261719 133.566406 14.140625 133.980469 14.058594 C 134.398438 13.976562 134.816406 13.933594 135.242188 13.933594 C 135.664062 13.933594 136.085938 13.976562 136.5 14.058594 C 136.917969 14.140625 137.320312 14.261719 137.710938 14.425781 C 138.105469 14.585938 138.476562 14.785156 138.828125 15.023438 C 139.179688 15.257812 139.507812 15.523438 139.808594 15.824219 C 140.105469 16.125 140.375 16.449219 140.609375 16.804688 C 140.847656 17.15625 141.046875 17.527344 141.207031 17.921875 C 141.371094 18.3125 141.492188 18.714844 141.574219 19.132812 C 141.65625 19.546875 141.699219 19.96875 141.699219 20.390625 Z M 141.699219 20.390625 "/></clipPath><clipPath id="d0e94c1ba6"><path d="M 267 51 L 291.292969 51 L 291.292969 76 L 267 76 Z M 267 51 "/></clipPath><clipPath id="8ac35902b2"><path d="M 291.15625 63.480469 C 291.15625 64.269531 291.078125 65.046875 290.925781 65.820312 C 290.769531 66.59375 290.542969 67.34375 290.242188 68.070312 C 289.941406 68.796875 289.570312 69.488281 289.132812 70.144531 C 288.695312 70.796875 288.199219 71.402344 287.640625 71.960938 C 287.085938 72.515625 286.480469 73.015625 285.824219 73.453125 C 285.171875 73.890625 284.480469 74.257812 283.753906 74.558594 C 283.023438 74.859375 282.273438 75.089844 281.503906 75.242188 C 280.730469 75.394531 279.949219 75.472656 279.164062 75.472656 C 278.375 75.472656 277.597656 75.394531 276.824219 75.242188 C 276.050781 75.089844 275.300781 74.859375 274.574219 74.558594 C 273.847656 74.257812 273.15625 73.890625 272.5 73.453125 C 271.847656 73.015625 271.238281 72.515625 270.683594 71.960938 C 270.125 71.402344 269.628906 70.796875 269.191406 70.144531 C 268.753906 69.488281 268.386719 68.796875 268.082031 68.070312 C 267.78125 67.34375 267.554688 66.59375 267.402344 65.820312 C 267.246094 65.046875 267.171875 64.269531 267.171875 63.480469 C 267.171875 62.691406 267.246094 61.914062 267.402344 61.140625 C 267.554688 60.367188 267.78125 59.617188 268.082031 58.890625 C 268.386719 58.164062 268.753906 57.472656 269.191406 56.816406 C 269.628906 56.164062 270.125 55.558594 270.683594 55 C 271.238281 54.445312 271.847656 53.945312 272.5 53.507812 C 273.15625 53.070312 273.847656 52.703125 274.574219 52.402344 C 275.300781 52.101562 276.050781 51.871094 276.824219 51.71875 C 277.597656 51.566406 278.375 51.488281 279.164062 51.488281 C 279.949219 51.488281 280.730469 51.566406 281.503906 51.71875 C 282.273438 51.871094 283.023438 52.101562 283.753906 52.402344 C 284.480469 52.703125 285.171875 53.070312 285.824219 53.507812 C 286.480469 53.945312 287.085938 54.445312 287.640625 55 C 288.199219 55.558594 288.695312 56.164062 289.132812 56.816406 C 289.570312 57.472656 289.941406 58.164062 290.242188 58.890625 C 290.542969 59.617188 290.769531 60.367188 290.925781 61.140625 C 291.078125 61.914062 291.15625 62.691406 291.15625 63.480469 Z M 291.15625 63.480469 "/></clipPath><clipPath id="92f5562696"><path d="M 129 79 L 252 79 L 252 181 L 129 181 Z M 129 79 "/></clipPath><clipPath id="5391ccda70"><path d="M 251.6875 92.839844 L 244.984375 114.914062 L 129.300781 180.433594 L 172.605469 82.242188 C 172.839844 81.753906 173.144531 81.316406 173.511719 80.921875 C 173.882812 80.527344 174.304688 80.195312 174.773438 79.929688 C 175.246094 79.664062 175.742188 79.472656 176.273438 79.359375 C 176.800781 79.246094 177.332031 79.214844 177.871094 79.261719 L 248.5625 88.484375 C 250.914062 88.789062 252.332031 90.730469 251.6875 92.839844 Z M 251.6875 92.839844 "/></clipPath><linearGradient x1="58.659149" gradientTransform="matrix(0.636851,0,0,0.636851,83.681666,13.9336)" y1="245.657617" x2="251.928244" gradientUnits="userSpaceOnUse" y2="86.818003" id="7cd36d9d1f"><stop style="stop-color:#ffde59;stop-opacity:1;" offset="0"/><stop style="stop-color:#ffde59;stop-opacity:1;" offset="0.125"/><stop style="stop-color:#ffde59;stop-opacity:1;" offset="0.15625"/><stop style="stop-color:#ffde59;stop-opacity:1;" offset="0.171875"/><stop style="stop-color:#fddc59;stop-opacity:1;" offset="0.175781"/><stop style="stop-color:#fbdb59;stop-opacity:1;" offset="0.179687"/><stop style="stop-color:#fada59;stop-opacity:1;" offset="0.183594"/><stop style="stop-color:#f9d959;stop-opacity:1;" offset="0.1875"/><stop style="stop-color:#f7d859;stop-opacity:1;" offset="0.191406"/><stop style="stop-color:#f6d759;stop-opacity:1;" offset="0.195312"/><stop style="stop-color:#f4d659;stop-opacity:1;" offset="0.199219"/><stop style="stop-color:#f3d559;stop-opacity:1;" offset="0.203125"/><stop style="stop-color:#f1d359;stop-opacity:1;" offset="0.207031"/><stop style="stop-color:#f0d259;stop-opacity:1;" offset="0.210937"/><stop style="stop-color:#efd159;stop-opacity:1;" offset="0.214844"/><stop style="stop-color:#edd059;stop-opacity:1;" offset="0.21875"/><stop style="stop-color:#eccf5a;stop-opacity:1;" offset="0.222656"/><stop style="stop-color:#eace5a;stop-opacity:1;" offset="0.226562"/><stop style="stop-color:#e9cd5a;stop-opacity:1;" offset="0.230469"/><stop style="stop-color:#e8cc5a;stop-opacity:1;" offset="0.234375"/><stop style="stop-color:#e6cb5a;stop-opacity:1;" offset="0.238281"/><stop style="stop-color:#e5c95a;stop-opacity:1;" offset="0.242188"/><stop style="stop-color:#e3c85a;stop-opacity:1;" offset="0.246094"/><stop style="stop-color:#e2c75a;stop-opacity:1;" offset="0.25"/><stop style="stop-color:#e0c65a;stop-opacity:1;" offset="0.253906"/><stop style="stop-color:#dfc55a;stop-opacity:1;" offset="0.257812"/><stop style="stop-color:#dec45a;stop-opacity:1;" offset="0.261719"/><stop style="stop-color:#dcc35a;stop-opacity:1;" offset="0.265625"/><stop style="stop-color:#dbc25a;stop-opacity:1;" offset="0.269531"/><stop style="stop-color:#d9c15a;stop-opacity:1;" offset="0.273438"/><stop style="stop-color:#d8bf5a;stop-opacity:1;" offset="0.277344"/><stop style="stop-color:#d7be5a;stop-opacity:1;" offset="0.28125"/><stop style="stop-color:#d5bd5a;stop-opacity:1;" offset="0.285156"/><stop style="stop-color:#d4bc5a;stop-opacity:1;" offset="0.289062"/><stop style="stop-color:#d2bb5a;stop-opacity:1;" offset="0.292969"/><stop style="stop-color:#d1ba5a;stop-opacity:1;" offset="0.296875"/><stop style="stop-color:#cfb95a;stop-opacity:1;" offset="0.300781"/><stop style="stop-color:#ceb85a;stop-opacity:1;" offset="0.304688"/><stop style="stop-color:#cdb75a;stop-opacity:1;" offset="0.308594"/><stop style="stop-color:#cbb55a;stop-opacity:1;" offset="0.3125"/><stop style="stop-color:#cab45a;stop-opacity:1;" offset="0.316406"/><stop style="stop-color:#c8b35a;stop-opacity:1;" offset="0.320312"/><stop style="stop-color:#c7b25b;stop-opacity:1;" offset="0.324219"/><stop style="stop-color:#c6b15b;stop-opacity:1;" offset="0.328125"/><stop style="stop-color:#c4b05b;stop-opacity:1;" offset="0.332031"/><stop style="stop-color:#c3af5b;stop-opacity:1;" offset="0.335937"/><stop style="stop-color:#c1ae5b;stop-opacity:1;" offset="0.339844"/><stop style="stop-color:#c0ad5b;stop-opacity:1;" offset="0.34375"/><stop style="stop-color:#beab5b;stop-opacity:1;" offset="0.347656"/><stop style="stop-color:#bdaa5b;stop-opacity:1;" offset="0.351562"/><stop style="stop-color:#bca95b;stop-opacity:1;" offset="0.355469"/><stop style="stop-color:#baa85b;stop-opacity:1;" offset="0.359375"/><stop style="stop-color:#b9a75b;stop-opacity:1;" offset="0.363281"/><stop style="stop-color:#b7a65b;stop-opacity:1;" offset="0.367187"/><stop style="stop-color:#b6a55b;stop-opacity:1;" offset="0.371094"/><stop style="stop-color:#b4a45b;stop-opacity:1;" offset="0.375"/><stop style="stop-color:#b3a35b;stop-opacity:1;" offset="0.378906"/><stop style="stop-color:#b2a15b;stop-opacity:1;" offset="0.382812"/><stop style="stop-color:#b0a05b;stop-opacity:1;" offset="0.386719"/><stop style="stop-color:#af9f5b;stop-opacity:1;" offset="0.390625"/><stop style="stop-color:#ad9e5b;stop-opacity:1;" offset="0.394531"/><stop style="stop-color:#ac9d5b;stop-opacity:1;" offset="0.398438"/><stop style="stop-color:#ab9c5b;stop-opacity:1;" offset="0.402344"/><stop style="stop-color:#a99b5b;stop-opacity:1;" offset="0.40625"/><stop style="stop-color:#a89a5b;stop-opacity:1;" offset="0.410156"/><stop style="stop-color:#a6985b;stop-opacity:1;" offset="0.414062"/><stop style="stop-color:#a5975b;stop-opacity:1;" offset="0.417969"/><stop style="stop-color:#a3965b;stop-opacity:1;" offset="0.421875"/><stop style="stop-color:#a2955c;stop-opacity:1;" offset="0.425781"/><stop style="stop-color:#a1945c;stop-opacity:1;" offset="0.429687"/><stop style="stop-color:#9f935c;stop-opacity:1;" offset="0.433594"/><stop style="stop-color:#9e925c;stop-opacity:1;" offset="0.4375"/><stop style="stop-color:#9c915c;stop-opacity:1;" offset="0.441406"/><stop style="stop-color:#9b905c;stop-opacity:1;" offset="0.445312"/><stop style="stop-color:#9a8e5c;stop-opacity:1;" offset="0.449219"/><stop style="stop-color:#988d5c;stop-opacity:1;" offset="0.453125"/><stop style="stop-color:#978c5c;stop-opacity:1;" offset="0.457031"/><stop style="stop-color:#958b5c;stop-opacity:1;" offset="0.460937"/><stop style="stop-color:#948a5c;stop-opacity:1;" offset="0.464844"/><stop style="stop-color:#92895c;stop-opacity:1;" offset="0.46875"/><stop style="stop-color:#91885c;stop-opacity:1;" offset="0.472656"/><stop style="stop-color:#90875c;stop-opacity:1;" offset="0.476562"/><stop style="stop-color:#8e865c;stop-opacity:1;" offset="0.480469"/><stop style="stop-color:#8d845c;stop-opacity:1;" offset="0.484375"/><stop style="stop-color:#8b835c;stop-opacity:1;" offset="0.488281"/><stop style="stop-color:#8a825c;stop-opacity:1;" offset="0.492188"/><stop style="stop-color:#89815c;stop-opacity:1;" offset="0.496094"/><stop style="stop-color:#87805c;stop-opacity:1;" offset="0.5"/><stop style="stop-color:#867f5c;stop-opacity:1;" offset="0.503906"/><stop style="stop-color:#847e5c;stop-opacity:1;" offset="0.507812"/><stop style="stop-color:#837d5c;stop-opacity:1;" offset="0.511719"/><stop style="stop-color:#817c5c;stop-opacity:1;" offset="0.515625"/><stop style="stop-color:#807a5c;stop-opacity:1;" offset="0.519531"/><stop style="stop-color:#7f795c;stop-opacity:1;" offset="0.523437"/><stop style="stop-color:#7d785c;stop-opacity:1;" offset="0.527344"/><stop style="stop-color:#7c775d;stop-opacity:1;" offset="0.53125"/><stop style="stop-color:#7a765d;stop-opacity:1;" offset="0.535156"/><stop style="stop-color:#79755d;stop-opacity:1;" offset="0.539062"/><stop style="stop-color:#78745d;stop-opacity:1;" offset="0.542969"/><stop style="stop-color:#76735d;stop-opacity:1;" offset="0.546875"/><stop style="stop-color:#75725d;stop-opacity:1;" offset="0.550781"/><stop style="stop-color:#73705d;stop-opacity:1;" offset="0.554688"/><stop style="stop-color:#726f5d;stop-opacity:1;" offset="0.558594"/><stop style="stop-color:#706e5d;stop-opacity:1;" offset="0.5625"/><stop style="stop-color:#6f6d5d;stop-opacity:1;" offset="0.566406"/><stop style="stop-color:#6e6c5d;stop-opacity:1;" offset="0.570312"/><stop style="stop-color:#6c6b5d;stop-opacity:1;" offset="0.574219"/><stop style="stop-color:#6b6a5d;stop-opacity:1;" offset="0.578125"/><stop style="stop-color:#69695d;stop-opacity:1;" offset="0.582031"/><stop style="stop-color:#68685d;stop-opacity:1;" offset="0.585938"/><stop style="stop-color:#67665d;stop-opacity:1;" offset="0.589844"/><stop style="stop-color:#65655d;stop-opacity:1;" offset="0.59375"/><stop style="stop-color:#64645d;stop-opacity:1;" offset="0.597656"/><stop style="stop-color:#62635d;stop-opacity:1;" offset="0.601562"/><stop style="stop-color:#61625d;stop-opacity:1;" offset="0.605469"/><stop style="stop-color:#5f615d;stop-opacity:1;" offset="0.609375"/><stop style="stop-color:#5e605d;stop-opacity:1;" offset="0.613281"/><stop style="stop-color:#5d5f5d;stop-opacity:1;" offset="0.617188"/><stop style="stop-color:#5b5e5d;stop-opacity:1;" offset="0.621094"/><stop style="stop-color:#5a5c5d;stop-opacity:1;" offset="0.625"/><stop style="stop-color:#585b5d;stop-opacity:1;" offset="0.628906"/><stop style="stop-color:#575a5e;stop-opacity:1;" offset="0.632812"/><stop style="stop-color:#56595e;stop-opacity:1;" offset="0.636719"/><stop style="stop-color:#54585e;stop-opacity:1;" offset="0.640625"/><stop style="stop-color:#53575e;stop-opacity:1;" offset="0.644531"/><stop style="stop-color:#51565e;stop-opacity:1;" offset="0.648437"/><stop style="stop-color:#50555e;stop-opacity:1;" offset="0.652344"/><stop style="stop-color:#4e535e;stop-opacity:1;" offset="0.65625"/><stop style="stop-color:#4d525e;stop-opacity:1;" offset="0.660156"/><stop style="stop-color:#4c515e;stop-opacity:1;" offset="0.664062"/><stop style="stop-color:#4a505e;stop-opacity:1;" offset="0.667969"/><stop style="stop-color:#494f5e;stop-opacity:1;" offset="0.671875"/><stop style="stop-color:#474e5e;stop-opacity:1;" offset="0.675781"/><stop style="stop-color:#464d5e;stop-opacity:1;" offset="0.679687"/><stop style="stop-color:#444c5e;stop-opacity:1;" offset="0.683594"/><stop style="stop-color:#434b5e;stop-opacity:1;" offset="0.6875"/><stop style="stop-color:#42495e;stop-opacity:1;" offset="0.691406"/><stop style="stop-color:#40485e;stop-opacity:1;" offset="0.695312"/><stop style="stop-color:#3f475e;stop-opacity:1;" offset="0.699219"/><stop style="stop-color:#3d465e;stop-opacity:1;" offset="0.703125"/><stop style="stop-color:#3c455e;stop-opacity:1;" offset="0.707031"/><stop style="stop-color:#3b445e;stop-opacity:1;" offset="0.710937"/><stop style="stop-color:#39435e;stop-opacity:1;" offset="0.714844"/><stop style="stop-color:#38425e;stop-opacity:1;" offset="0.71875"/><stop style="stop-color:#36415e;stop-opacity:1;" offset="0.722656"/><stop style="stop-color:#353f5e;stop-opacity:1;" offset="0.726562"/><stop style="stop-color:#333e5e;stop-opacity:1;" offset="0.730469"/><stop style="stop-color:#323d5f;stop-opacity:1;" offset="0.734375"/><stop style="stop-color:#313c5f;stop-opacity:1;" offset="0.738281"/><stop style="stop-color:#2f3b5f;stop-opacity:1;" offset="0.742187"/><stop style="stop-color:#2e3a5f;stop-opacity:1;" offset="0.746094"/><stop style="stop-color:#2c395f;stop-opacity:1;" offset="0.75"/><stop style="stop-color:#2b385f;stop-opacity:1;" offset="0.753906"/><stop style="stop-color:#2a375f;stop-opacity:1;" offset="0.757812"/><stop style="stop-color:#28355f;stop-opacity:1;" offset="0.761719"/><stop style="stop-color:#27345f;stop-opacity:1;" offset="0.765625"/><stop style="stop-color:#25335f;stop-opacity:1;" offset="0.769531"/><stop style="stop-color:#24325f;stop-opacity:1;" offset="0.773437"/><stop style="stop-color:#22315f;stop-opacity:1;" offset="0.777344"/><stop style="stop-color:#21305f;stop-opacity:1;" offset="0.78125"/><stop style="stop-color:#202f5f;stop-opacity:1;" offset="0.785156"/><stop style="stop-color:#1e2e5f;stop-opacity:1;" offset="0.789062"/><stop style="stop-color:#1d2d5f;stop-opacity:1;" offset="0.792969"/><stop style="stop-color:#1b2b5f;stop-opacity:1;" offset="0.796875"/><stop style="stop-color:#1a2a5f;stop-opacity:1;" offset="0.800781"/><stop style="stop-color:#19295f;stop-opacity:1;" offset="0.804688"/><stop style="stop-color:#17285f;stop-opacity:1;" offset="0.808594"/><stop style="stop-color:#16275f;stop-opacity:1;" offset="0.8125"/><stop style="stop-color:#14265f;stop-opacity:1;" offset="0.816406"/><stop style="stop-color:#13255f;stop-opacity:1;" offset="0.820312"/><stop style="stop-color:#11245f;stop-opacity:1;" offset="0.824219"/><stop style="stop-color:#10235f;stop-opacity:1;" offset="0.828125"/><stop style="stop-color:#0f215f;stop-opacity:1;" offset="0.832031"/><stop style="stop-color:#0d2060;stop-opacity:1;" offset="0.835938"/><stop style="stop-color:#0c1f60;stop-opacity:1;" offset="0.839844"/><stop style="stop-color:#0a1e60;stop-opacity:1;" offset="0.84375"/><stop style="stop-color:#091d60;stop-opacity:1;" offset="0.847656"/><stop style="stop-color:#081c60;stop-opacity:1;" offset="0.851562"/><stop style="stop-color:#061b60;stop-opacity:1;" offset="0.855469"/><stop style="stop-color:#051a60;stop-opacity:1;" offset="0.859375"/><stop style="stop-color:#031960;stop-opacity:1;" offset="0.863281"/><stop style="stop-color:#021760;stop-opacity:1;" offset="0.867188"/><stop style="stop-color:#011760;stop-opacity:1;" offset="0.871094"/><stop style="stop-color:#001660;stop-opacity:1;" offset="0.875"/><stop style="stop-color:#001660;stop-opacity:1;" offset="1"/></linearGradient></defs><g id="5b7c7af4af"><g style="fill:#001660;fill-opacity:1;"><g transform="translate(74.824109, 274.542829)"><path style="stroke:none" d="M 2.5625 0 L 2.5625 -28.859375 L 10.015625 -28.859375 L 21.890625 -13.609375 L 21.890625 -28.859375 L 29.8125 -28.859375 L 29.8125 0 L 22.84375 0 L 10.46875 -15.828125 L 10.46875 0 Z M 2.5625 0 "/></g></g><g style="fill:#001660;fill-opacity:1;"><g transform="translate(106.486132, 274.542829)"><path style="stroke:none" d="M 13.484375 0.53125 C 11.722656 0.53125 10.085938 0.222656 8.578125 -0.390625 C 7.066406 -1.003906 5.773438 -1.832031 4.703125 -2.875 C 3.628906 -3.925781 2.78125 -5.160156 2.15625 -6.578125 C 1.539062 -7.992188 1.234375 -9.484375 1.234375 -11.046875 L 1.234375 -11.140625 C 1.234375 -12.703125 1.539062 -14.195312 2.15625 -15.625 C 2.78125 -17.050781 3.632812 -18.296875 4.71875 -19.359375 C 5.800781 -20.421875 7.097656 -21.257812 8.609375 -21.875 C 10.128906 -22.488281 11.78125 -22.796875 13.5625 -22.796875 C 15.351562 -22.796875 16.992188 -22.488281 18.484375 -21.875 C 19.984375 -21.257812 21.273438 -20.425781 22.359375 -19.375 C 23.453125 -18.332031 24.304688 -17.101562 24.921875 -15.6875 C 25.546875 -14.269531 25.859375 -12.78125 25.859375 -11.21875 L 25.859375 -11.140625 C 25.859375 -9.566406 25.546875 -8.066406 24.921875 -6.640625 C 24.304688 -5.210938 23.453125 -3.96875 22.359375 -2.90625 C 21.273438 -1.84375 19.96875 -1.003906 18.4375 -0.390625 C 16.914062 0.222656 15.265625 0.53125 13.484375 0.53125 Z M 13.5625 -6.109375 C 14.96875 -6.109375 16.101562 -6.59375 16.96875 -7.5625 C 17.832031 -8.539062 18.265625 -9.703125 18.265625 -11.046875 L 18.265625 -11.140625 C 18.265625 -12.503906 17.8125 -13.6875 16.90625 -14.6875 C 16 -15.695312 14.859375 -16.203125 13.484375 -16.203125 C 12.078125 -16.203125 10.945312 -15.707031 10.09375 -14.71875 C 9.25 -13.726562 8.828125 -12.5625 8.828125 -11.21875 L 8.828125 -11.140625 C 8.828125 -9.785156 9.269531 -8.609375 10.15625 -7.609375 C 11.050781 -6.609375 12.1875 -6.109375 13.5625 -6.109375 Z M 13.5625 -6.109375 "/></g></g><g style="fill:#001660;fill-opacity:1;"><g transform="translate(132.829926, 274.542829)"><path style="stroke:none" d="M 2.109375 0 L 2.109375 -22.3125 L 9.9375 -22.3125 L 9.9375 -19.25 C 10.65625 -20.1875 11.546875 -21.007812 12.609375 -21.71875 C 13.679688 -22.4375 15.003906 -22.796875 16.578125 -22.796875 C 18.054688 -22.796875 19.347656 -22.476562 20.453125 -21.84375 C 21.554688 -21.21875 22.410156 -20.328125 23.015625 -19.171875 C 23.972656 -20.273438 25.050781 -21.15625 26.25 -21.8125 C 27.445312 -22.46875 28.851562 -22.796875 30.46875 -22.796875 C 32.832031 -22.796875 34.691406 -22.082031 36.046875 -20.65625 C 37.410156 -19.226562 38.09375 -17.222656 38.09375 -14.640625 L 38.09375 0 L 30.265625 0 L 30.265625 -12.125 C 30.265625 -13.332031 29.988281 -14.257812 29.4375 -14.90625 C 28.882812 -15.550781 28.144531 -15.875 27.21875 -15.875 C 26.28125 -15.875 25.507812 -15.550781 24.90625 -14.90625 C 24.300781 -14.257812 24 -13.332031 24 -12.125 L 24 0 L 16.203125 0 L 16.203125 -12.125 C 16.203125 -13.332031 15.921875 -14.257812 15.359375 -14.90625 C 14.796875 -15.550781 14.046875 -15.875 13.109375 -15.875 C 12.171875 -15.875 11.40625 -15.550781 10.8125 -14.90625 C 10.226562 -14.257812 9.9375 -13.332031 9.9375 -12.125 L 9.9375 0 Z M 2.109375 0 "/></g></g><g style="fill:#001660;fill-opacity:1;"><g transform="translate(172.160109, 274.542829)"><path style="stroke:none" d="M 8.5 0.5 C 6.375 0.5 4.597656 -0.0976562 3.171875 -1.296875 C 1.742188 -2.492188 1.03125 -4.191406 1.03125 -6.390625 L 1.03125 -6.46875 C 1.03125 -8.78125 1.832031 -10.523438 3.4375 -11.703125 C 5.050781 -12.890625 7.160156 -13.484375 9.765625 -13.484375 C 10.785156 -13.484375 11.773438 -13.398438 12.734375 -13.234375 C 13.703125 -13.066406 14.503906 -12.863281 15.140625 -12.625 L 15.140625 -12.984375 C 15.140625 -14.171875 14.765625 -15.078125 14.015625 -15.703125 C 13.273438 -16.335938 12.164062 -16.65625 10.6875 -16.65625 C 9.5 -16.65625 8.421875 -16.535156 7.453125 -16.296875 C 6.492188 -16.066406 5.507812 -15.773438 4.5 -15.421875 L 2.890625 -20.90625 C 4.148438 -21.425781 5.492188 -21.84375 6.921875 -22.15625 C 8.359375 -22.476562 10.023438 -22.640625 11.921875 -22.640625 C 13.898438 -22.640625 15.585938 -22.40625 16.984375 -21.9375 C 18.390625 -21.46875 19.53125 -20.796875 20.40625 -19.921875 C 21.257812 -19.085938 21.867188 -18.085938 22.234375 -16.921875 C 22.609375 -15.753906 22.796875 -14.390625 22.796875 -12.828125 L 22.796875 0 L 15.09375 0 L 15.09375 -2.34375 C 14.320312 -1.5 13.394531 -0.8125 12.3125 -0.28125 C 11.226562 0.238281 9.957031 0.5 8.5 0.5 Z M 11.296875 -4.40625 C 12.453125 -4.40625 13.394531 -4.742188 14.125 -5.421875 C 14.851562 -6.097656 15.21875 -6.984375 15.21875 -8.078125 L 15.21875 -9.109375 C 14.800781 -9.273438 14.320312 -9.410156 13.78125 -9.515625 C 13.25 -9.628906 12.695312 -9.6875 12.125 -9.6875 C 11 -9.6875 10.117188 -9.4375 9.484375 -8.9375 C 8.847656 -8.445312 8.53125 -7.773438 8.53125 -6.921875 L 8.53125 -6.84375 C 8.53125 -6.070312 8.789062 -5.472656 9.3125 -5.046875 C 9.84375 -4.617188 10.503906 -4.40625 11.296875 -4.40625 Z M 11.296875 -4.40625 "/></g></g><g style="fill:#001660;fill-opacity:1;"><g transform="translate(196.153985, 274.542829)"><path style="stroke:none" d="M 11.171875 0.5 C 9.847656 0.5 8.582031 0.234375 7.375 -0.296875 C 6.164062 -0.835938 5.113281 -1.601562 4.21875 -2.59375 C 3.332031 -3.582031 2.617188 -4.789062 2.078125 -6.21875 C 1.546875 -7.65625 1.28125 -9.265625 1.28125 -11.046875 L 1.28125 -11.140625 C 1.28125 -12.953125 1.546875 -14.578125 2.078125 -16.015625 C 2.617188 -17.460938 3.332031 -18.6875 4.21875 -19.6875 C 5.113281 -20.6875 6.160156 -21.453125 7.359375 -21.984375 C 8.554688 -22.523438 9.816406 -22.796875 11.140625 -22.796875 C 12.816406 -22.796875 14.1875 -22.472656 15.25 -21.828125 C 16.320312 -21.179688 17.21875 -20.4375 17.9375 -19.59375 L 17.9375 -30.09375 L 25.765625 -30.09375 L 25.765625 0 L 17.9375 0 L 17.9375 -2.96875 C 17.164062 -2.03125 16.257812 -1.21875 15.21875 -0.53125 C 14.175781 0.15625 12.828125 0.5 11.171875 0.5 Z M 13.53125 -6.0625 C 14.789062 -6.0625 15.867188 -6.535156 16.765625 -7.484375 C 17.660156 -8.429688 18.109375 -9.648438 18.109375 -11.140625 L 18.109375 -11.21875 C 18.109375 -12.675781 17.660156 -13.882812 16.765625 -14.84375 C 15.867188 -15.800781 14.789062 -16.28125 13.53125 -16.28125 C 12.257812 -16.28125 11.175781 -15.804688 10.28125 -14.859375 C 9.394531 -13.910156 8.953125 -12.695312 8.953125 -11.21875 L 8.953125 -11.140625 C 8.953125 -9.648438 9.394531 -8.429688 10.28125 -7.484375 C 11.175781 -6.535156 12.257812 -6.0625 13.53125 -6.0625 Z M 13.53125 -6.0625 "/></g></g><g style="fill:#ffde59;fill-opacity:1;"><g transform="translate(223.324103, 274.542829)"><path style="stroke:none" d="M 2.5625 0 L 2.5625 -28.859375 L 14.96875 -28.859375 C 18.570312 -28.859375 21.460938 -27.960938 23.640625 -26.171875 C 25.828125 -24.390625 26.921875 -21.921875 26.921875 -18.765625 L 26.921875 -18.671875 C 26.921875 -16.972656 26.613281 -15.46875 26 -14.15625 C 25.382812 -12.851562 24.523438 -11.769531 23.421875 -10.90625 C 22.316406 -10.039062 21.007812 -9.378906 19.5 -8.921875 C 17.988281 -8.472656 16.34375 -8.25 14.5625 -8.25 L 10.5625 -8.25 L 10.5625 0 Z M 10.5625 -14.515625 L 14.390625 -14.515625 C 15.796875 -14.515625 16.910156 -14.863281 17.734375 -15.5625 C 18.554688 -16.269531 18.96875 -17.1875 18.96875 -18.3125 L 18.96875 -18.390625 C 18.96875 -19.628906 18.546875 -20.5625 17.703125 -21.1875 C 16.867188 -21.820312 15.75 -22.140625 14.34375 -22.140625 L 10.5625 -22.140625 Z M 10.5625 -14.515625 "/></g></g><g style="fill:#ffde59;fill-opacity:1;"><g transform="translate(250.368745, 274.542829)"><path style="stroke:none" d="M 8.5 0.5 C 6.375 0.5 4.597656 -0.0976562 3.171875 -1.296875 C 1.742188 -2.492188 1.03125 -4.191406 1.03125 -6.390625 L 1.03125 -6.46875 C 1.03125 -8.78125 1.832031 -10.523438 3.4375 -11.703125 C 5.050781 -12.890625 7.160156 -13.484375 9.765625 -13.484375 C 10.785156 -13.484375 11.773438 -13.398438 12.734375 -13.234375 C 13.703125 -13.066406 14.503906 -12.863281 15.140625 -12.625 L 15.140625 -12.984375 C 15.140625 -14.171875 14.765625 -15.078125 14.015625 -15.703125 C 13.273438 -16.335938 12.164062 -16.65625 10.6875 -16.65625 C 9.5 -16.65625 8.421875 -16.535156 7.453125 -16.296875 C 6.492188 -16.066406 5.507812 -15.773438 4.5 -15.421875 L 2.890625 -20.90625 C 4.148438 -21.425781 5.492188 -21.84375 6.921875 -22.15625 C 8.359375 -22.476562 10.023438 -22.640625 11.921875 -22.640625 C 13.898438 -22.640625 15.585938 -22.40625 16.984375 -21.9375 C 18.390625 -21.46875 19.53125 -20.796875 20.40625 -19.921875 C 21.257812 -19.085938 21.867188 -18.085938 22.234375 -16.921875 C 22.609375 -15.753906 22.796875 -14.390625 22.796875 -12.828125 L 22.796875 0 L 15.09375 0 L 15.09375 -2.34375 C 14.320312 -1.5 13.394531 -0.8125 12.3125 -0.28125 C 11.226562 0.238281 9.957031 0.5 8.5 0.5 Z M 11.296875 -4.40625 C 12.453125 -4.40625 13.394531 -4.742188 14.125 -5.421875 C 14.851562 -6.097656 15.21875 -6.984375 15.21875 -8.078125 L 15.21875 -9.109375 C 14.800781 -9.273438 14.320312 -9.410156 13.78125 -9.515625 C 13.25 -9.628906 12.695312 -9.6875 12.125 -9.6875 C 11 -9.6875 10.117188 -9.4375 9.484375 -8.9375 C 8.847656 -8.445312 8.53125 -7.773438 8.53125 -6.921875 L 8.53125 -6.84375 C 8.53125 -6.070312 8.789062 -5.472656 9.3125 -5.046875 C 9.84375 -4.617188 10.503906 -4.40625 11.296875 -4.40625 Z M 11.296875 -4.40625 "/></g></g><g style="fill:#ffde59;fill-opacity:1;"><g transform="translate(274.362621, 274.542829)"><path style="stroke:none" d="M 13.109375 -8.859375 L 17.3125 -22.3125 L 25.359375 -22.3125 L 17.1875 -0.53125 C 16.226562 2.070312 15.128906 3.929688 13.890625 5.046875 C 12.660156 6.160156 10.929688 6.71875 8.703125 6.71875 C 7.328125 6.71875 6.046875 6.546875 4.859375 6.203125 C 3.679688 5.859375 2.582031 5.382812 1.5625 4.78125 L 3.953125 -0.703125 C 4.585938 -0.347656 5.207031 -0.0625 5.8125 0.15625 C 6.414062 0.382812 6.9375 0.5 7.375 0.5 C 7.757812 0.5 8.097656 0.4375 8.390625 0.3125 C 8.679688 0.1875 8.960938 -0.0507812 9.234375 -0.40625 L 0.5 -22.3125 L 8.65625 -22.3125 Z M 13.109375 -8.859375 "/></g></g><g style="fill:#001660;fill-opacity:1;"><g transform="translate(119.406171, 292.124513)"><path style="stroke:none" d="M 7.96875 0.234375 L 7.09375 -0.546875 C 6.757812 -0.328125 6.394531 -0.15625 6 -0.03125 C 5.613281 0.0820312 5.203125 0.140625 4.765625 0.140625 C 4.160156 0.140625 3.601562 0.0351562 3.09375 -0.171875 C 2.582031 -0.390625 2.140625 -0.679688 1.765625 -1.046875 C 1.398438 -1.410156 1.113281 -1.835938 0.90625 -2.328125 C 0.695312 -2.816406 0.59375 -3.34375 0.59375 -3.90625 L 0.59375 -3.9375 C 0.59375 -4.5 0.695312 -5.023438 0.90625 -5.515625 C 1.113281 -6.003906 1.40625 -6.429688 1.78125 -6.796875 C 2.15625 -7.171875 2.597656 -7.460938 3.109375 -7.671875 C 3.617188 -7.890625 4.175781 -8 4.78125 -8 C 5.394531 -8 5.953125 -7.890625 6.453125 -7.671875 C 6.960938 -7.460938 7.398438 -7.175781 7.765625 -6.8125 C 8.140625 -6.445312 8.429688 -6.019531 8.640625 -5.53125 C 8.847656 -5.039062 8.953125 -4.515625 8.953125 -3.953125 L 8.953125 -3.9375 C 8.953125 -3.507812 8.890625 -3.109375 8.765625 -2.734375 C 8.640625 -2.359375 8.46875 -2.003906 8.25 -1.671875 L 9.0625 -0.984375 Z M 4.78125 -1.453125 C 4.976562 -1.453125 5.160156 -1.472656 5.328125 -1.515625 C 5.492188 -1.554688 5.65625 -1.609375 5.8125 -1.671875 L 4.53125 -2.765625 L 5.640625 -4 L 6.9375 -2.828125 C 7.070312 -3.160156 7.140625 -3.519531 7.140625 -3.90625 L 7.140625 -3.9375 C 7.140625 -4.269531 7.082031 -4.585938 6.96875 -4.890625 C 6.851562 -5.191406 6.6875 -5.453125 6.46875 -5.671875 C 6.257812 -5.898438 6.007812 -6.078125 5.71875 -6.203125 C 5.425781 -6.335938 5.109375 -6.40625 4.765625 -6.40625 C 4.410156 -6.40625 4.085938 -6.335938 3.796875 -6.203125 C 3.515625 -6.078125 3.269531 -5.898438 3.0625 -5.671875 C 2.851562 -5.453125 2.691406 -5.191406 2.578125 -4.890625 C 2.460938 -4.597656 2.40625 -4.285156 2.40625 -3.953125 L 2.40625 -3.9375 C 2.40625 -3.59375 2.460938 -3.269531 2.578125 -2.96875 C 2.691406 -2.675781 2.851562 -2.414062 3.0625 -2.1875 C 3.28125 -1.96875 3.53125 -1.789062 3.8125 -1.65625 C 4.101562 -1.519531 4.425781 -1.453125 4.78125 -1.453125 Z M 4.78125 -1.453125 "/></g></g><g style="fill:#001660;fill-opacity:1;"><g transform="translate(130.430882, 292.124513)"><path style="stroke:none" d="M 0.9375 -7.859375 L 4.53125 -7.859375 C 5.53125 -7.859375 6.296875 -7.59375 6.828125 -7.0625 C 7.273438 -6.613281 7.5 -6.015625 7.5 -5.265625 L 7.5 -5.25 C 7.5 -4.613281 7.34375 -4.09375 7.03125 -3.6875 C 6.726562 -3.289062 6.320312 -3 5.8125 -2.8125 L 7.734375 0 L 5.71875 0 L 4.03125 -2.515625 L 2.671875 -2.515625 L 2.671875 0 L 0.9375 0 Z M 4.421875 -4.046875 C 4.847656 -4.046875 5.175781 -4.144531 5.40625 -4.34375 C 5.632812 -4.550781 5.75 -4.820312 5.75 -5.15625 L 5.75 -5.171875 C 5.75 -5.546875 5.628906 -5.828125 5.390625 -6.015625 C 5.148438 -6.203125 4.816406 -6.296875 4.390625 -6.296875 L 2.671875 -6.296875 L 2.671875 -4.046875 Z M 4.421875 -4.046875 "/></g></g><g style="fill:#001660;fill-opacity:1;"><g transform="translate(140.029831, 292.124513)"><path style="stroke:none" d=""/></g></g><g style="fill:#001660;fill-opacity:1;"><g transform="translate(144.879974, 292.124513)"><path style="stroke:none" d="M 3.734375 0.109375 C 3.140625 0.109375 2.550781 0.0078125 1.96875 -0.1875 C 1.394531 -0.394531 0.875 -0.710938 0.40625 -1.140625 L 1.421875 -2.375 C 1.785156 -2.082031 2.15625 -1.847656 2.53125 -1.671875 C 2.90625 -1.503906 3.320312 -1.421875 3.78125 -1.421875 C 4.132812 -1.421875 4.410156 -1.484375 4.609375 -1.609375 C 4.804688 -1.742188 4.90625 -1.925781 4.90625 -2.15625 L 4.90625 -2.171875 C 4.90625 -2.285156 4.882812 -2.382812 4.84375 -2.46875 C 4.800781 -2.5625 4.722656 -2.644531 4.609375 -2.71875 C 4.492188 -2.789062 4.332031 -2.863281 4.125 -2.9375 C 3.914062 -3.019531 3.648438 -3.097656 3.328125 -3.171875 C 2.929688 -3.273438 2.570312 -3.382812 2.25 -3.5 C 1.925781 -3.625 1.648438 -3.773438 1.421875 -3.953125 C 1.203125 -4.128906 1.03125 -4.347656 0.90625 -4.609375 C 0.78125 -4.867188 0.71875 -5.191406 0.71875 -5.578125 L 0.71875 -5.609375 C 0.71875 -5.960938 0.785156 -6.285156 0.921875 -6.578125 C 1.054688 -6.867188 1.242188 -7.117188 1.484375 -7.328125 C 1.734375 -7.535156 2.023438 -7.691406 2.359375 -7.796875 C 2.691406 -7.910156 3.0625 -7.96875 3.46875 -7.96875 C 4.050781 -7.96875 4.582031 -7.878906 5.0625 -7.703125 C 5.539062 -7.535156 5.984375 -7.289062 6.390625 -6.96875 L 5.5 -5.671875 C 5.144531 -5.910156 4.796875 -6.097656 4.453125 -6.234375 C 4.117188 -6.378906 3.785156 -6.453125 3.453125 -6.453125 C 3.109375 -6.453125 2.851562 -6.382812 2.6875 -6.25 C 2.519531 -6.125 2.4375 -5.960938 2.4375 -5.765625 L 2.4375 -5.734375 C 2.4375 -5.609375 2.457031 -5.5 2.5 -5.40625 C 2.550781 -5.3125 2.640625 -5.226562 2.765625 -5.15625 C 2.898438 -5.082031 3.078125 -5.007812 3.296875 -4.9375 C 3.515625 -4.875 3.796875 -4.796875 4.140625 -4.703125 C 4.535156 -4.597656 4.882812 -4.476562 5.1875 -4.34375 C 5.5 -4.21875 5.757812 -4.0625 5.96875 -3.875 C 6.1875 -3.695312 6.347656 -3.484375 6.453125 -3.234375 C 6.566406 -2.984375 6.625 -2.6875 6.625 -2.34375 L 6.625 -2.328125 C 6.625 -1.929688 6.550781 -1.582031 6.40625 -1.28125 C 6.269531 -0.976562 6.070312 -0.722656 5.8125 -0.515625 C 5.5625 -0.316406 5.257812 -0.160156 4.90625 -0.046875 C 4.550781 0.0546875 4.160156 0.109375 3.734375 0.109375 Z M 3.734375 0.109375 "/></g></g><g style="fill:#001660;fill-opacity:1;"><g transform="translate(153.547122, 292.124513)"><path style="stroke:none" d="M 4.625 0.140625 C 4.050781 0.140625 3.515625 0.0351562 3.015625 -0.171875 C 2.523438 -0.390625 2.097656 -0.675781 1.734375 -1.03125 C 1.378906 -1.394531 1.097656 -1.820312 0.890625 -2.3125 C 0.691406 -2.8125 0.59375 -3.34375 0.59375 -3.90625 L 0.59375 -3.9375 C 0.59375 -4.5 0.691406 -5.023438 0.890625 -5.515625 C 1.097656 -6.003906 1.378906 -6.429688 1.734375 -6.796875 C 2.097656 -7.171875 2.53125 -7.460938 3.03125 -7.671875 C 3.53125 -7.890625 4.085938 -8 4.703125 -8 C 5.066406 -8 5.398438 -7.96875 5.703125 -7.90625 C 6.003906 -7.84375 6.273438 -7.757812 6.515625 -7.65625 C 6.765625 -7.550781 6.992188 -7.425781 7.203125 -7.28125 C 7.421875 -7.132812 7.617188 -6.96875 7.796875 -6.78125 L 6.703125 -5.515625 C 6.390625 -5.796875 6.070312 -6.015625 5.75 -6.171875 C 5.4375 -6.328125 5.082031 -6.40625 4.6875 -6.40625 C 4.351562 -6.40625 4.046875 -6.335938 3.765625 -6.203125 C 3.484375 -6.078125 3.238281 -5.898438 3.03125 -5.671875 C 2.832031 -5.453125 2.675781 -5.191406 2.5625 -4.890625 C 2.457031 -4.597656 2.40625 -4.285156 2.40625 -3.953125 L 2.40625 -3.9375 C 2.40625 -3.59375 2.457031 -3.269531 2.5625 -2.96875 C 2.675781 -2.675781 2.832031 -2.414062 3.03125 -2.1875 C 3.238281 -1.96875 3.476562 -1.789062 3.75 -1.65625 C 4.03125 -1.519531 4.34375 -1.453125 4.6875 -1.453125 C 5.132812 -1.453125 5.515625 -1.535156 5.828125 -1.703125 C 6.140625 -1.867188 6.445312 -2.09375 6.75 -2.375 L 7.859375 -1.265625 C 7.648438 -1.046875 7.4375 -0.847656 7.21875 -0.671875 C 7 -0.503906 6.757812 -0.359375 6.5 -0.234375 C 6.25 -0.117188 5.96875 -0.03125 5.65625 0.03125 C 5.351562 0.101562 5.007812 0.140625 4.625 0.140625 Z M 4.625 0.140625 "/></g></g><g style="fill:#001660;fill-opacity:1;"><g transform="translate(163.314459, 292.124513)"><path style="stroke:none" d="M 3.640625 -7.921875 L 5.234375 -7.921875 L 8.609375 0 L 6.796875 0 L 6.078125 -1.765625 L 2.75 -1.765625 L 2.03125 0 L 0.265625 0 Z M 5.453125 -3.296875 L 4.421875 -5.84375 L 3.375 -3.296875 Z M 5.453125 -3.296875 "/></g></g><g style="fill:#001660;fill-opacity:1;"><g transform="translate(173.665582, 292.124513)"><path style="stroke:none" d="M 0.9375 -7.859375 L 2.53125 -7.859375 L 6.21875 -3.015625 L 6.21875 -7.859375 L 7.9375 -7.859375 L 7.9375 0 L 6.453125 0 L 2.65625 -5 L 2.65625 0 L 0.9375 0 Z M 0.9375 -7.859375 "/></g></g><g style="fill:#001660;fill-opacity:1;"><g transform="translate(184.016705, 292.124513)"><path style="stroke:none" d=""/></g></g><g style="fill:#001660;fill-opacity:1;"><g transform="translate(188.866848, 292.124513)"><path style="stroke:none" d="M 0.9375 -7.859375 L 4.15625 -7.859375 C 4.625 -7.859375 5.046875 -7.789062 5.421875 -7.65625 C 5.796875 -7.53125 6.109375 -7.347656 6.359375 -7.109375 C 6.617188 -6.867188 6.816406 -6.582031 6.953125 -6.25 C 7.097656 -5.914062 7.171875 -5.546875 7.171875 -5.140625 L 7.171875 -5.125 C 7.171875 -4.664062 7.085938 -4.265625 6.921875 -3.921875 C 6.753906 -3.578125 6.523438 -3.285156 6.234375 -3.046875 C 5.953125 -2.816406 5.617188 -2.644531 5.234375 -2.53125 C 4.847656 -2.414062 4.429688 -2.359375 3.984375 -2.359375 L 2.671875 -2.359375 L 2.671875 0 L 0.9375 0 Z M 4.046875 -3.890625 C 4.484375 -3.890625 4.820312 -4.003906 5.0625 -4.234375 C 5.300781 -4.460938 5.421875 -4.75 5.421875 -5.09375 L 5.421875 -5.109375 C 5.421875 -5.503906 5.289062 -5.800781 5.03125 -6 C 4.78125 -6.195312 4.441406 -6.296875 4.015625 -6.296875 L 2.671875 -6.296875 L 2.671875 -3.890625 Z M 4.046875 -3.890625 "/></g></g><g style="fill:#001660;fill-opacity:1;"><g transform="translate(197.848343, 292.124513)"><path style="stroke:none" d="M 3.640625 -7.921875 L 5.234375 -7.921875 L 8.609375 0 L 6.796875 0 L 6.078125 -1.765625 L 2.75 -1.765625 L 2.03125 0 L 0.265625 0 Z M 5.453125 -3.296875 L 4.421875 -5.84375 L 3.375 -3.296875 Z M 5.453125 -3.296875 "/></g></g><g style="fill:#001660;fill-opacity:1;"><g transform="translate(208.199466, 292.124513)"><path style="stroke:none" d="M 3.15625 -3.09375 L 0.140625 -7.859375 L 2.15625 -7.859375 L 4.03125 -4.703125 L 5.9375 -7.859375 L 7.90625 -7.859375 L 4.890625 -3.140625 L 4.890625 0 L 3.15625 0 Z M 3.15625 -3.09375 "/></g></g><g style="fill:#001660;fill-opacity:1;"><g transform="translate(217.719828, 292.124513)"><path style="stroke:none" d="M 0.9375 -7.859375 L 2.8125 -7.859375 L 4.875 -4.53125 L 6.9375 -7.859375 L 8.8125 -7.859375 L 8.8125 0 L 7.09375 0 L 7.09375 -5.140625 L 4.875 -1.78125 L 4.828125 -1.78125 L 2.640625 -5.09375 L 2.640625 0 L 0.9375 0 Z M 0.9375 -7.859375 "/></g></g><g style="fill:#001660;fill-opacity:1;"><g transform="translate(228.946607, 292.124513)"><path style="stroke:none" d="M 0.9375 -7.859375 L 6.875 -7.859375 L 6.875 -6.328125 L 2.65625 -6.328125 L 2.65625 -4.734375 L 6.375 -4.734375 L 6.375 -3.1875 L 2.65625 -3.1875 L 2.65625 -1.546875 L 6.9375 -1.546875 L 6.9375 0 L 0.9375 0 Z M 0.9375 -7.859375 "/></g></g><g style="fill:#001660;fill-opacity:1;"><g transform="translate(237.950555, 292.124513)"><path style="stroke:none" d="M 0.9375 -7.859375 L 2.53125 -7.859375 L 6.21875 -3.015625 L 6.21875 -7.859375 L 7.9375 -7.859375 L 7.9375 0 L 6.453125 0 L 2.65625 -5 L 2.65625 0 L 0.9375 0 Z M 0.9375 -7.859375 "/></g></g><g style="fill:#001660;fill-opacity:1;"><g transform="translate(248.301678, 292.124513)"><path style="stroke:none" d="M 2.78125 -6.265625 L 0.375 -6.265625 L 0.375 -7.859375 L 6.890625 -7.859375 L 6.890625 -6.265625 L 4.5 -6.265625 L 4.5 0 L 2.78125 0 Z M 2.78125 -6.265625 "/></g></g><g clip-rule="nonzero" clip-path="url(#6f4cfedf15)"><g clip-rule="nonzero" clip-path="url(#cab3bf8a0c)"><path style=" stroke:none;fill-rule:nonzero;fill:url(#36b16bb010);" d="M 149.851562 211.988281 L 149.851562 233.597656 L 170.300781 233.597656 L 170.300781 211.988281 Z M 149.851562 211.988281 "/></g></g><g clip-rule="nonzero" clip-path="url(#98c0c26f7d)"><g clip-rule="nonzero" clip-path="url(#57b8795ab3)"><path style=" stroke:none;fill-rule:nonzero;fill:url(#7328eff49b);" d="M 123.210938 79.214844 L 123.210938 219.140625 L 252.332031 219.140625 L 252.332031 79.214844 Z M 123.210938 79.214844 "/></g></g><g clip-rule="nonzero" clip-path="url(#8fde4ecaa5)"><g clip-rule="nonzero" clip-path="url(#f5e2d92e01)"><path style=" stroke:none;fill-rule:nonzero;fill:url(#b6bc1e61fe);" d="M 83.652344 34.996094 L 83.652344 235.804688 L 289.757812 235.804688 L 289.757812 34.996094 Z M 83.652344 34.996094 "/></g></g><path style=" stroke:none;fill-rule:nonzero;fill:#ffffff;fill-opacity:1;" d="M 143.347656 100.710938 C 143.347656 101.328125 143.316406 101.941406 143.257812 102.554688 C 143.199219 103.164062 143.105469 103.773438 142.988281 104.378906 C 142.867188 104.980469 142.71875 105.578125 142.539062 106.167969 C 142.359375 106.753906 142.152344 107.335938 141.917969 107.902344 C 141.683594 108.472656 141.417969 109.027344 141.128906 109.570312 C 140.839844 110.113281 140.523438 110.640625 140.179688 111.152344 C 139.839844 111.664062 139.472656 112.15625 139.082031 112.632812 C 138.691406 113.109375 138.277344 113.566406 137.84375 114 C 137.410156 114.433594 136.953125 114.847656 136.476562 115.238281 C 136 115.628906 135.507812 115.996094 134.996094 116.335938 C 134.484375 116.679688 133.957031 116.996094 133.414062 117.285156 C 132.871094 117.574219 132.316406 117.839844 131.746094 118.074219 C 131.179688 118.308594 130.597656 118.515625 130.011719 118.695312 C 129.421875 118.875 128.824219 119.023438 128.222656 119.144531 C 127.617188 119.261719 127.007812 119.351562 126.398438 119.414062 C 125.785156 119.472656 125.171875 119.503906 124.554688 119.503906 C 123.9375 119.503906 123.324219 119.472656 122.710938 119.414062 C 122.101562 119.351562 121.492188 119.261719 120.886719 119.144531 C 120.285156 119.023438 119.6875 118.875 119.097656 118.695312 C 118.511719 118.515625 117.929688 118.308594 117.363281 118.074219 C 116.792969 117.839844 116.238281 117.574219 115.695312 117.285156 C 115.152344 116.996094 114.625 116.679688 114.113281 116.335938 C 113.601562 115.996094 113.109375 115.628906 112.632812 115.238281 C 112.15625 114.847656 111.699219 114.433594 111.265625 114 C 110.832031 113.566406 110.417969 113.109375 110.027344 112.632812 C 109.636719 112.15625 109.269531 111.664062 108.929688 111.152344 C 108.585938 110.640625 108.269531 110.113281 107.980469 109.570312 C 107.691406 109.027344 107.425781 108.472656 107.191406 107.902344 C 106.957031 107.335938 106.75 106.753906 106.570312 106.167969 C 106.390625 105.578125 106.242188 104.980469 106.121094 104.378906 C 106.003906 103.773438 105.910156 103.164062 105.851562 102.554688 C 105.792969 101.941406 105.761719 101.328125 105.761719 100.710938 C 105.761719 100.09375 105.792969 99.480469 105.851562 98.867188 C 105.910156 98.257812 106.003906 97.648438 106.121094 97.042969 C 106.242188 96.441406 106.390625 95.84375 106.570312 95.253906 C 106.75 94.667969 106.957031 94.085938 107.191406 93.519531 C 107.425781 92.949219 107.691406 92.394531 107.980469 91.851562 C 108.269531 91.308594 108.585938 90.78125 108.929688 90.269531 C 109.269531 89.757812 109.636719 89.265625 110.027344 88.789062 C 110.417969 88.3125 110.832031 87.855469 111.265625 87.421875 C 111.699219 86.988281 112.15625 86.574219 112.632812 86.183594 C 113.109375 85.792969 113.601562 85.425781 114.113281 85.085938 C 114.625 84.742188 115.152344 84.425781 115.695312 84.136719 C 116.238281 83.847656 116.792969 83.582031 117.363281 83.347656 C 117.929688 83.113281 118.511719 82.90625 119.097656 82.726562 C 119.6875 82.546875 120.285156 82.398438 120.886719 82.277344 C 121.492188 82.160156 122.101562 82.066406 122.710938 82.007812 C 123.324219 81.949219 123.9375 81.917969 124.554688 81.917969 C 125.171875 81.917969 125.785156 81.949219 126.398438 82.007812 C 127.007812 82.066406 127.617188 82.160156 128.222656 82.277344 C 128.824219 82.398438 129.421875 82.546875 130.011719 82.726562 C 130.597656 82.90625 131.179688 83.113281 131.746094 83.347656 C 132.316406 83.582031 132.871094 83.847656 133.414062 84.136719 C 133.957031 84.425781 134.484375 84.742188 134.996094 85.085938 C 135.507812 85.425781 136 85.792969 136.476562 86.183594 C 136.953125 86.574219 137.410156 86.988281 137.84375 87.421875 C 138.277344 87.855469 138.691406 88.3125 139.082031 88.789062 C 139.472656 89.265625 139.839844 89.757812 140.179688 90.269531 C 140.523438 90.78125 140.839844 91.308594 141.128906 91.851562 C 141.417969 92.394531 141.683594 92.949219 141.917969 93.519531 C 142.152344 94.085938 142.359375 94.667969 142.539062 95.253906 C 142.71875 95.84375 142.867188 96.441406 142.988281 97.042969 C 143.105469 97.648438 143.199219 98.257812 143.257812 98.867188 C 143.316406 99.480469 143.347656 100.09375 143.347656 100.710938 Z M 143.347656 100.710938 "/><g clip-rule="nonzero" clip-path="url(#9703828179)"><g clip-rule="nonzero" clip-path="url(#017cf7afae)"><path style=" stroke:none;fill-rule:nonzero;fill:#001660;fill-opacity:1;" d="M 128.785156 13.933594 L 128.785156 26.847656 L 141.699219 26.847656 L 141.699219 13.933594 Z M 128.785156 13.933594 "/></g></g><g clip-rule="nonzero" clip-path="url(#d0e94c1ba6)"><g clip-rule="nonzero" clip-path="url(#8ac35902b2)"><path style=" stroke:none;fill-rule:nonzero;fill:#001660;fill-opacity:1;" d="M 267.171875 51.488281 L 267.171875 75.472656 L 291.15625 75.472656 L 291.15625 51.488281 Z M 267.171875 51.488281 "/></g></g><g clip-rule="nonzero" clip-path="url(#92f5562696)"><g clip-rule="nonzero" clip-path="url(#5391ccda70)"><path style=" stroke:none;fill-rule:nonzero;fill:url(#7cd36d9d1f);" d="M 129.300781 79.214844 L 129.300781 180.433594 L 252.332031 180.433594 L 252.332031 79.214844 Z M 129.300781 79.214844 "/></g></g></g></svg>